<svg width="112" height="126" viewBox="0 0 112 126" fill="none" xmlns="http://www.w3.org/2000/svg">
<g clip-path="url(#clip0_1072_970)">
<path d="M56.1497 30.4795C58.582 32.985 60.8406 35.3704 63.162 37.6839C73.374 47.869 83.5956 58.0445 93.851 68.1912C94.7921 69.1223 95.1927 70.0631 95.1879 71.3878C95.1493 85.5087 95.1879 99.6295 95.1444 113.75C95.1444 115.238 95.545 115.805 97.1135 115.795C101.664 115.771 101.664 115.824 101.664 111.269C101.664 97.2537 101.64 83.2384 101.703 69.2231C101.713 67.5432 101.206 66.3673 100.004 65.2057C95.6608 61.0011 91.409 56.7006 87.1283 52.4336C86.7229 52.0256 86.332 51.6032 85.6805 50.9264C87.9584 48.7378 90.1591 46.6115 92.3694 44.4948C93.1657 43.7316 93.6097 44.5044 94.0634 44.9556C98.1752 49.0209 102.273 53.0959 106.37 57.1709C107.726 58.5149 109.155 59.7964 110.39 61.2459C110.95 61.9035 111.413 62.8874 111.413 63.7274C111.471 83.6656 111.447 103.604 111.495 123.542C111.495 125.087 110.988 125.515 109.483 125.5C102.413 125.433 95.3375 125.471 88.2673 125.467C86.5717 125.467 85.7223 124.644 85.7191 123C85.7191 107.079 85.7046 91.1628 85.7432 75.242C85.7432 73.9221 85.3716 72.9717 84.4257 72.0358C75.3623 63.0986 66.323 54.1423 57.332 45.1331C56.2269 44.0292 55.5995 44.0964 54.5377 45.1619C45.6191 54.0895 36.6523 62.9738 27.6661 71.839C26.7153 72.7797 26.3823 73.7541 26.392 75.0692C26.4885 91.302 26.5223 107.54 26.614 123.772C26.6237 125.087 26.199 125.505 24.8814 125.495C17.5989 125.447 10.3115 125.481 3.02409 125.471C0.939217 125.471 0.924739 125.447 0.919913 123.331C0.862 105.14 0.808913 86.9438 0.755826 68.7527C0.755826 68.3304 0.828217 67.8888 0.736521 67.4856C-0.146653 63.593 1.44113 60.8667 4.33678 58.2653C8.9843 54.0847 13.2699 49.5057 17.7147 45.0995C18.1587 44.6628 18.6317 44.2548 19.2011 43.7316C21.5032 46.1699 23.7087 48.5026 26.0493 50.9792C25.8129 51.2336 25.4171 51.704 24.9828 52.1408C20.5524 56.5614 16.1366 60.9915 11.6676 65.3737C10.7603 66.2617 10.3983 67.2024 10.408 68.4599C10.5238 83.584 10.6155 98.708 10.6686 113.832C10.6686 115.243 11.0885 115.805 12.5749 115.805C17.1597 115.805 17.1597 115.853 17.1549 111.307C17.1356 97.8728 17.1259 84.4431 17.068 71.0086C17.0632 69.7511 17.43 68.8295 18.3324 67.932C30.4652 55.9134 42.5642 43.866 54.6729 31.8234C55.0445 31.4586 55.445 31.1227 56.1448 30.4939L56.1497 30.4795Z" fill="#1D1D1B"/>
<path d="M70.0584 7.53164C70.0826 10.1907 68.8953 12.4226 67.1338 14.2033C63.8569 17.5103 60.3918 20.635 56.9315 23.7596C56.5985 24.062 55.5174 24.0812 55.1989 23.7884C51.6469 20.539 48.0322 17.3279 44.7504 13.8145C43.4522 12.4226 42.5449 10.3779 42.1636 8.49159C41.5942 5.65973 42.738 3.13506 45.2427 1.51274C47.7812 -0.133571 50.3439 0.408801 52.7376 1.91592C53.9296 2.66469 54.9817 4.23421 56.1303 4.2678C57.1824 4.3014 58.2249 2.67909 59.3783 1.94472C61.5935 0.533595 64.0065 -0.104772 66.4582 1.24396C68.8809 2.57829 70.0343 4.76698 70.0536 7.53164H70.0584Z" fill="#1D1D1B"/>
<path d="M70.0873 105.864C70.0584 110.289 67.2978 113.165 63.2391 112.771C62.1581 112.665 61.0432 112.041 60.1118 111.413C57.4285 109.589 55.2519 109.497 52.6072 111.297C49.9191 113.126 47.3082 113.409 45.2378 111.883C42.7862 110.073 41.9802 107.491 42.4338 104.578C42.7572 102.514 43.8238 100.772 45.7156 99.7492C47.8391 98.5972 49.1759 96.8501 50.1122 94.7094C50.5996 93.5959 51.0967 92.4776 51.7192 91.436C53.9103 87.7882 58.4372 87.7354 60.6813 91.3544C61.4583 92.6072 62.0181 93.9943 62.6551 95.3286C63.519 97.1429 64.7304 98.602 66.5402 99.5956C68.9966 100.944 70.1259 103.099 70.0873 105.874V105.864Z" fill="#1D1D1B"/>
<path d="M43.4715 80.1806C43.7562 75.8848 45.1799 73.1441 48.2928 71.4546C50.006 70.5283 51.2512 70.821 52.2357 72.4626C54.2868 75.8848 55.1313 79.5854 54.1951 83.526C53.7462 85.4171 52.8872 87.1882 50.7396 87.6778C48.2735 88.2346 46.5892 86.7562 45.4599 84.9419C44.4319 83.2908 43.9252 81.3181 43.4667 80.1758L43.4715 80.1806Z" fill="#1D1D1B"/>
<path d="M45.7542 93.1161C45.5853 95.0504 45.2957 96.9559 43.3894 97.8919C41.5845 98.7798 39.8615 98.1031 38.2882 97.0663C33.6793 94.0233 32.6417 87.7788 36.0393 83.5886C37.8684 81.3327 39.4803 81.2079 41.4735 83.3198C44.0699 86.0749 45.5081 89.3675 45.7542 93.1161Z" fill="#1D1D1B"/>
<path d="M57.2451 80.5984C57.7567 77.6466 58.2634 74.9107 59.8898 72.506C61.0191 70.8357 62.2256 70.4853 63.9727 71.5125C66.8828 73.226 68.4465 75.8275 68.4851 79.2209C68.5237 82.5663 67.2641 85.331 64.3733 87.1549C62.3222 88.4508 60.0346 87.9421 58.9294 85.7774C58.1138 84.179 57.7856 82.3359 57.2451 80.6032V80.5984Z" fill="#1D1D1B"/>
<path d="M66.5257 91.7867C66.6609 88.974 68.321 85.6814 71.0381 82.9119C72.5342 81.3904 73.9869 81.4336 75.4878 82.9455C79.7637 87.2653 78.8998 95.3865 71.9116 97.9688C68.6492 99.1735 66.4726 97.0184 66.5257 91.7867Z" fill="#1D1D1B"/>
</g>
<defs>
<clipPath id="clip0_1072_970">
<rect width="111" height="125" fill="white" transform="translate(0.5 0.5)"/>
</clipPath>
</defs>
</svg>
