<svg width="148" height="126" viewBox="0 0 148 126" fill="none" xmlns="http://www.w3.org/2000/svg">
<g clip-path="url(#clip0_1072_964)">
<path d="M78.2052 101.139C79.4662 97.9191 80.4839 94.9684 81.764 92.1457C83.345 88.6509 85.1308 85.2521 86.8718 81.8341C87.4799 80.6371 88.3888 79.6706 89.829 80.5475C91.2115 81.3924 90.8595 82.6342 90.1874 83.8055C84.1067 94.4243 80.055 105.747 78.442 117.909C78.3396 118.658 78.314 119.419 78.218 120.597C80.0678 119.534 81.668 118.709 83.1658 117.729C87.0766 115.188 90.9811 112.634 94.8087 109.959C95.532 109.453 96.1273 108.468 96.3577 107.584C98.822 98.2328 101.856 89.1245 107.271 81.002C108.282 79.485 109.511 78.1153 110.695 76.7199C111.476 75.8046 112.513 75.4589 113.499 76.3166C114.529 77.2191 114.376 78.3137 113.505 79.293C107.425 86.1482 104.346 94.4947 101.645 103.033C101.504 103.481 101.434 103.949 101.357 104.416C101.344 104.512 101.427 104.621 101.549 104.934C103.2 103.603 104.826 102.355 106.381 101.023C117.333 91.6976 127.216 81.418 134.34 68.7958C140.235 58.3498 144.011 47.2317 143.685 35.0575C143.397 24.2082 139.262 15.1064 130.736 8.18719C129.52 7.19508 128.137 6.40779 126.832 5.52449C126.697 5.60769 126.563 5.6909 126.428 5.78052C126.755 7.23348 127.222 8.66725 127.344 10.133C127.427 11.0803 127.299 12.3797 126.71 12.9429C126.281 13.3526 124.809 13.0838 124.041 12.6741C118.53 9.76177 113.044 10.5107 107.617 12.7509C105.959 13.4358 104.73 13.4486 103.207 12.3925C101.542 11.2403 99.6093 10.4787 97.4778 9.39053C97.8939 12.1557 98.2843 14.4599 98.566 16.777C98.6876 17.7627 98.854 18.8892 98.4956 19.7405C98.1819 20.4894 97.1706 20.9375 96.4665 21.5199C95.9225 20.8543 95.0456 20.2526 94.8919 19.5037C94.1175 15.7657 93.6182 11.97 92.8437 8.232C92.2996 5.6141 93.2085 4.44276 95.7496 5.25565C98.7708 6.22217 101.677 7.53432 104.64 8.67365C105.152 8.87207 105.818 9.17291 106.253 9.00649C111.559 6.94545 116.968 6.21576 122.863 7.80315C122.518 6.30538 122.101 5.08924 121.993 3.84749C121.897 2.80417 121.794 1.17838 122.358 0.800741C123.106 0.301483 124.617 0.467902 125.596 0.858348C132.81 3.70668 138.078 8.85927 141.989 15.4136C147.583 24.7971 148.549 34.9935 146.815 45.5611C144.677 58.5546 139.076 70.0375 131.255 80.5091C122.268 92.5489 111.419 102.707 99.2444 111.399C92.4277 116.264 85.2076 120.552 78.0836 124.962C77.1875 125.519 75.6577 125.647 74.6272 125.314C59.3871 120.463 45.0686 113.627 31.9919 104.422C21.0466 96.7158 11.5863 87.4923 5.79367 75.1773C0.705084 64.3473 -1.59918 53.018 2.49089 41.343C3.93106 37.2401 6.59376 33.5469 8.84042 29.7513C9.71092 28.2791 11.3879 28.0103 12.7257 28.74C14.1082 29.4952 14.4475 30.8842 13.9098 32.7596C13.0457 35.7552 11.8488 38.7379 11.5671 41.7975C10.7158 51.0977 12.2648 60.078 16.6365 68.3989C19.3952 73.6539 24.279 75.1581 29.7452 72.8539C30.7245 72.4442 31.7423 72.0858 32.6512 71.5545C36.5556 69.2822 38.111 65.6274 36.4404 60.686C35.077 56.6472 32.9904 52.8131 30.9422 49.0431C28.5995 44.729 26.0904 40.5301 25.0919 35.6336C23.991 30.2185 24.9831 25.0467 26.8329 19.9902C28.7851 14.6519 31.4734 9.76817 36.0564 6.17096C42.5659 1.07597 51.7574 0.691928 58.5934 5.35807C67.3688 11.3556 73.1166 19.4333 75.0625 29.9945C75.2993 31.2939 76.1442 31.3323 77.0467 31.5819C79.4918 32.254 81.9945 32.7788 84.3499 33.6941C86.6926 34.6094 88.8817 35.928 91.2051 37.0993C91.3971 35.6528 91.5828 34.059 91.8452 32.478C91.954 31.8443 92.2036 31.2298 92.4533 30.6282C92.8949 29.5593 93.6886 29.028 94.8471 29.4056C96.0505 29.7961 96.2105 30.7498 95.9929 31.8443C95.6728 33.4317 95.3656 35.0191 95.0392 36.6513C97.6187 36.4144 99.8205 36.0944 102.029 36.056C103.987 36.024 104.243 36.5553 103.373 38.3091C102.957 39.1476 102.49 40.0117 101.843 40.6645C100.198 42.3031 98.3355 42.3735 96.3193 41.023C97.5611 44.9722 99.2316 48.5758 103.264 50.0992C107.706 51.7762 112.097 51.4946 116.014 48.4478C117.083 47.6157 118.184 46.9629 119.221 48.3326C120.277 49.7344 119.349 50.7073 118.274 51.6098C112.456 56.5064 101.549 56.0903 96.8378 50.1952C96.6649 49.9776 96.4153 49.824 96.0633 49.5104C95.8265 50.4705 95.66 51.2642 95.4424 52.045C93.1957 59.95 85.1884 66.1075 76.9763 66.1267C73.9679 66.1331 70.9532 65.941 67.9512 65.717C66.5879 65.6146 65.9158 65.9474 65.6342 67.3812C63.4643 78.5249 65.4165 88.5229 73.6735 96.8054C75.1137 98.252 76.6178 99.6281 78.218 101.152L78.2052 101.139ZM86.3278 39.4548C86.3918 39.282 86.4494 39.1092 86.5134 38.9363C85.0924 38.3027 83.7227 37.5026 82.2441 37.0737C79.4726 36.2608 76.6562 35.576 73.8207 35.0191C72.3869 34.7375 71.6445 34.1422 71.4652 32.6572C70.1979 22.0192 64.578 14.1079 55.7962 8.34721C50.1444 4.64118 42.4187 5.58849 37.4261 10.1586C32.7664 14.4279 30.6029 19.9902 29.0668 25.8788C27.761 30.8842 28.3307 35.7616 30.6413 40.3509C32.4719 43.9865 34.6418 47.4493 36.4788 51.0849C37.855 53.8117 39.2183 56.6088 40.0824 59.5211C41.465 64.1552 41.1577 68.7126 37.6117 72.4506C35.1859 75.0045 32.0111 76.3871 28.6635 77.2576C22.8324 78.7809 17.347 76.5983 14.0378 71.5545C9.89014 65.237 8.53959 58.0169 7.7459 50.7201C7.32345 46.7964 7.66909 42.796 7.66909 38.7827C5.81927 41.7847 4.94237 45.1387 4.53273 48.5886C3.4382 57.7417 5.53764 66.3251 9.59571 74.4604C14.3067 83.8951 21.3987 91.3584 29.5468 97.8807C40.2936 106.483 52.327 112.839 65.0197 118.011C68.0088 119.227 71.0684 120.283 74.2944 121.493C74.4352 120.667 74.5376 120.104 74.6336 119.541C75.2353 115.816 75.5681 112.02 76.5346 108.397C77.1875 105.958 76.6626 104.678 74.7552 103.117C63.4835 93.8931 59.1054 82.0325 61.7169 67.6564C62.1202 65.4482 62.133 65.4674 59.8415 65.2626C57.198 65.0257 54.5545 64.7505 51.9046 64.5009C50.6756 64.3857 49.8307 63.8096 49.914 62.5039C50.0036 61.0765 51.0149 60.6732 52.2886 60.7437C52.6407 60.7629 52.9927 60.8141 53.3448 60.8397C60.5904 61.3709 67.8296 61.9982 75.0817 62.4078C80.8423 62.7343 85.5789 60.4364 89.1761 55.9623C91.0835 53.594 92.2548 50.8801 92.0244 47.4173C91.5828 47.8014 91.3651 47.9742 91.1667 48.1662C86.315 52.7619 83.5626 51.7826 79.351 48.5054C75.9906 45.8939 76.5794 42.4055 80.4647 40.5877C81.412 40.1461 82.4745 39.9156 83.5114 39.7108C84.4267 39.5316 85.374 39.5316 86.3085 39.4548H86.3278Z" fill="#1D1D1B"/>
<path d="M115.72 22.2946C118.114 22.3138 120.002 24.1956 119.989 26.5447C119.976 28.8937 118.063 30.7628 115.688 30.7564C113.256 30.7564 111.451 28.9386 111.463 26.5063C111.476 24.0932 113.313 22.2754 115.72 22.2946Z" fill="#1D1D1B"/>
<path d="M53.0056 35.4481C50.6053 35.4673 48.7747 33.6303 48.7427 31.1852C48.7171 28.8169 50.6245 26.9351 53.0312 26.9607C55.3354 26.9927 57.2621 28.8937 57.2493 31.1212C57.2365 33.5215 55.3675 35.4225 52.9992 35.4417L53.0056 35.4481Z" fill="#1D1D1B"/>
</g>
<defs>
<clipPath id="clip0_1072_964">
<rect width="147.217" height="125" fill="white" transform="translate(0.391479 0.5)"/>
</clipPath>
</defs>
</svg>
