<svg width="106" height="126" viewBox="0 0 106 126" fill="none" xmlns="http://www.w3.org/2000/svg">
<g clip-path="url(#clip0_1072_980)">
<path d="M52.9267 125.495C37.8026 125.495 22.6785 125.495 7.55889 125.495C2.72356 125.495 0.360845 123.205 0.360845 118.437C0.342529 96.701 0.360845 74.9652 0.342529 53.2249C0.342529 50.2148 1.38194 47.7329 3.54319 45.6108C17.9164 31.4983 32.2575 17.3493 46.6399 3.23676C50.3397 -0.392699 55.6375 -0.424577 59.3784 3.2231C68.3439 11.962 77.2362 20.7784 86.1605 29.5583C91.4354 34.7497 96.6599 39.9867 102.008 45.1008C104.522 47.5052 105.667 50.2603 105.657 53.7304C105.598 75.3523 105.635 96.9788 105.621 118.601C105.621 123.196 103.272 125.491 98.638 125.491C83.3994 125.491 68.1654 125.491 52.9267 125.491V125.495ZM26.4698 90.2527C20.0273 89.2508 16.3321 85.1113 12.8933 80.6303C11.712 79.0911 11.2724 77.3788 12.4354 75.7531C13.1681 74.7284 14.2716 73.886 15.3705 73.2257C18.388 71.4041 19.1756 69.8876 18.5345 66.4813C18.3468 65.4795 18.1133 64.4822 17.8431 63.4985C16.8175 59.7507 16.7396 55.9891 17.6554 52.2231C20.9247 38.83 34.3318 31.0247 48.824 33.1832C56.7318 34.3581 63.3346 38.1606 68.8476 43.8166C73.541 48.63 76.792 54.1721 77.1263 61.0941C77.1538 61.6952 77.5933 62.3646 78.0192 62.8428C82.1906 67.5469 85.8033 72.6428 88.7338 78.1894C93.8714 87.9165 96.7515 98.2311 96.1425 109.283C95.9181 113.391 95.0436 117.471 94.3522 121.547C94.1507 122.749 94.3247 123.273 95.6297 123.191C96.5409 123.132 97.4567 123.191 98.3679 123.177C102.132 123.15 103.299 121.993 103.299 118.291C103.299 96.7192 103.281 75.152 103.322 53.5801C103.327 50.9662 102.48 48.8987 100.602 47.0589C86.4535 33.1969 72.3459 19.2938 58.2245 5.39986C54.7171 1.94801 51.4249 1.87059 47.9357 5.29057C33.6724 19.2801 19.4412 33.3016 5.18702 47.3003C3.55235 48.9078 2.77851 50.7567 2.78309 53.0746C2.81972 74.9835 2.80598 96.8968 2.80598 118.806C2.80598 119.261 2.79225 119.721 2.85635 120.167C3.15856 122.262 4.79781 123.136 7.84279 123.205C10.1368 123.255 9.39046 121.647 9.58735 120.513C9.62398 120.29 9.65603 120.063 9.68809 119.839C10.9473 110.395 15.2744 102.421 21.5704 95.3986C23.0402 93.7592 24.6016 92.2018 26.4652 90.2481L26.4698 90.2527ZM21.0346 85.3481C23.4294 88.0805 28.2602 88.5677 31.0258 86.5822C36.113 82.93 41.2276 79.3188 46.411 75.8077C49.2545 73.8814 52.3452 72.4287 55.8206 71.9323C58.307 71.5771 59.5524 72.6701 59.2823 75.1656C59.1495 76.3997 58.9022 77.6384 58.5451 78.8315C58.2383 79.8743 58.4718 80.4937 59.383 81.1085C63.2064 83.6905 66.1232 87.0376 67.7349 91.4003C68.0921 92.3748 68.6049 92.5296 69.5528 92.3019C71.3798 91.8648 73.2205 91.4504 75.0795 91.209C76.8287 90.9859 77.7673 91.9786 77.6346 93.7137C77.5933 94.2738 77.456 94.8385 77.2774 95.3713C75.5603 100.417 73.2251 105.148 69.5299 109.06C67.5838 111.123 65.3768 112.94 63.298 114.88C61.8053 116.274 60.6834 117.895 60.4453 119.976C60.1889 122.185 61.0589 123.182 63.2201 123.182C72.0666 123.182 80.9085 123.164 89.7549 123.2C90.9546 123.205 91.6048 122.895 91.9528 121.652C94.082 114.038 94.4758 106.337 93.2074 98.559C91.2202 86.3637 85.7026 75.8032 77.9001 66.3219C77.5155 65.8574 77.3049 65.2518 77.0851 64.8419C75.4184 66.6179 74.3744 68.0934 72.9961 69.1135C70.8578 70.7028 68.3302 71.4087 65.6103 71.4223C60.6559 71.4405 56.3243 69.7556 52.5146 66.7181C47.8304 62.9885 44.6343 58.1021 41.9465 52.8561C41.8092 52.5828 42.0335 51.8588 42.2945 51.7176C42.6608 51.5172 43.3522 51.4899 43.659 51.7176C44.1307 52.0682 44.3871 52.7012 44.7534 53.2022C47.1573 56.4992 49.2957 60.0376 52.0384 63.0249C55.7061 67.0187 60.4545 69.3503 66.0407 69.0543C71.8514 68.7492 74.9513 65.5888 74.6125 60.0558C74.411 56.7405 73.2754 53.7122 71.4805 50.9799C65.7889 42.3138 57.904 36.7125 47.5007 35.3736C37.6744 34.1077 29.2858 37.1451 23.3653 45.3649C19.3038 51.0072 18.4155 57.287 20.4302 63.9949C21.4559 67.4149 21.6848 70.8349 19.0199 73.7448C20.5447 75.9216 19.5465 78.5901 16.4649 80.7578C18.5483 84.0548 21.7398 84.3098 24.2078 81.4136C24.4413 81.1358 24.9175 81.0629 25.2839 80.899C25.3525 81.3453 25.6364 81.9373 25.4487 82.2059C24.9084 82.9801 24.2628 83.7361 23.4981 84.2825C22.7929 84.7834 21.8817 85.002 21.0301 85.3572L21.0346 85.3481ZM56.9333 74.6009C56.7868 74.4552 56.6402 74.3049 56.4891 74.1592C55.2528 74.5053 53.8929 74.6237 52.8077 75.2339C48.65 77.5792 44.4741 79.9199 40.4996 82.5566C33.0726 87.493 26.131 93.026 20.7095 100.194C16.007 106.414 12.701 113.223 12.0096 121.133C11.8539 122.922 12.4721 123.205 14.0518 123.2C28.1457 123.155 42.2396 123.173 56.3289 123.168C56.9333 123.168 57.5331 123.1 58.1192 123.064C58.2337 117.198 58.8106 115.7 62.0479 112.735C62.634 112.198 63.2201 111.651 63.8429 111.16C68.9713 107.134 72.3047 101.87 74.5392 95.8494C74.7819 95.1891 75.0017 94.5197 75.3405 93.536C74.3606 93.6681 73.7516 93.7045 73.1655 93.8412C71.4988 94.2282 69.8412 94.6426 68.1837 95.0753C67.0527 95.3713 66.2972 95.1026 65.9995 93.8821C64.7358 88.6998 61.3062 85.1478 57.002 82.3426C55.7474 81.5274 55.5321 80.6849 55.8939 79.3689C56.3197 77.8023 56.5899 76.1902 56.9241 74.6009H56.9333Z" fill="#1D1D1B"/>
<path d="M29.3408 66.3223C28.4387 65.8122 27.4955 65.3614 26.6621 64.7603C26.4377 64.5963 26.5476 63.977 26.5018 63.5672C26.9048 63.6036 27.3856 63.508 27.6969 63.6992C30.0322 65.12 30.9296 64.7739 31.8592 62.1099C31.9736 61.782 32.4269 61.568 32.7246 61.2993C32.9398 61.6454 33.3107 61.9779 33.3427 62.3422C33.503 64.2502 31.6119 66.0354 29.3453 66.3268L29.3408 66.3223Z" fill="#1D1D1B"/>
<path d="M46.7315 98.3267C47.8167 99.4788 48.6592 100.362 49.6574 101.423C49.1034 101.628 48.8973 101.774 48.7096 101.756C47.5191 101.642 46.5575 102.038 46.498 103.281C46.443 104.474 47.3909 104.962 48.4944 105.235C48.9111 105.34 49.2224 105.854 49.5842 106.178C49.0942 106.364 48.5676 106.77 48.1189 106.697C46.617 106.464 45.573 105.595 44.9366 104.169C44.6939 103.623 44.0986 103.236 43.6957 102.744C42.9356 101.81 42.0793 100.922 41.5253 99.875C41.3192 99.4879 41.8366 98.7137 42.0198 98.1172C42.3541 98.5771 42.6517 99.069 43.0272 99.497C43.6178 100.162 44.1902 101.218 44.8954 101.323C45.976 101.487 46.5209 100.513 46.4568 99.3695C46.4476 99.2101 46.5346 99.0462 46.7269 98.3176L46.7315 98.3267Z" fill="#1D1D1B"/>
<path d="M61.242 109.889C60.8482 110.017 60.372 110.34 60.1568 110.217C58.4397 109.224 56.7639 108.163 55.1155 107.061C54.9552 106.952 54.9598 106.424 55.0651 106.16C55.1292 106 55.6283 105.827 55.7794 105.918C57.524 106.97 59.241 108.072 60.9536 109.174C61.068 109.247 61.0818 109.475 61.242 109.889Z" fill="#1D1D1B"/>
<path d="M39.9226 86.0041C40.1012 86.291 40.3027 86.5687 40.4538 86.8648C41.2322 88.363 42.0427 89.8476 42.7387 91.3822C42.8852 91.7101 42.5876 92.2384 42.496 92.671C42.1343 92.4843 41.6031 92.3886 41.4383 92.0926C40.6049 90.6263 39.8173 89.128 39.1351 87.5843C38.9657 87.2063 39.2404 86.6325 39.3091 86.1498C39.5151 86.0997 39.7166 86.0496 39.9226 85.9995V86.0041Z" fill="#1D1D1B"/>
<path d="M55.5138 99.2515C56.8234 100.126 58.0734 100.891 59.2273 101.788C59.4471 101.956 59.2639 102.635 59.2685 103.081C58.8335 102.949 58.3802 102.863 57.9727 102.676C57.0294 102.239 56.1045 101.761 55.175 101.287C54.6804 101.037 54.1997 100.759 53.7097 100.49C54.1997 100.153 54.6896 99.8161 55.5092 99.2515H55.5138Z" fill="#1D1D1B"/>
<path d="M49.1079 92.7436C49.0851 93.0806 49.1537 93.4723 49.0072 93.7455C48.847 94.0461 48.4898 94.2464 48.2196 94.4878C47.9907 94.21 47.5511 93.9231 47.5603 93.6544C47.6244 92.1061 47.313 90.7354 46.1362 89.6197C45.9897 89.4785 46.1271 89.0459 46.1362 88.7453C46.5483 88.7726 47.1894 88.6497 47.3313 88.8592C48.1235 90.0295 48.792 91.2818 49.5017 92.5068C49.3689 92.5842 49.2407 92.6617 49.1079 92.7391V92.7436Z" fill="#1D1D1B"/>
<path d="M40.5774 93.846C40.0829 93.8688 39.5334 94.0646 39.277 93.8734C38.1918 93.0628 37.1661 92.1656 36.1908 91.2275C35.9939 91.0363 36.0031 90.5035 36.1038 90.1893C36.1496 90.0526 36.8044 89.9206 36.9646 90.0526C38.1368 91.0226 39.2587 92.0564 40.3805 93.0855C40.4812 93.1766 40.4675 93.3952 40.5728 93.8506L40.5774 93.846Z" fill="#1D1D1B"/>
<path d="M53.7555 108.013C54.273 108.341 54.5614 108.437 54.7171 108.637C55.5047 109.662 56.2922 110.691 57.002 111.77C57.1577 112.012 56.9882 112.467 56.9699 112.822C56.6128 112.795 56.077 112.904 55.9214 112.713C55.033 111.629 54.1951 110.495 53.4442 109.316C53.2976 109.083 53.6136 108.56 53.7601 108.013H53.7555Z" fill="#1D1D1B"/>
</g>
<defs>
<clipPath id="clip0_1072_980">
<rect width="105.315" height="125" fill="white" transform="translate(0.342529 0.5)"/>
</clipPath>
</defs>
</svg>
