<svg width="120" height="126" viewBox="0 0 120 126" fill="none" xmlns="http://www.w3.org/2000/svg">
<g clip-path="url(#clip0_1072_956)">
<path d="M18.8082 50.1968C18.9373 50.6556 18.9373 50.7329 18.9735 50.7587C25.1223 54.9706 24.1251 61.2394 20.844 65.8997C19.0252 68.4825 16.6897 70.756 14.3438 72.9006C9.42995 77.3857 6.0352 82.6286 5.36864 89.3563C5.19296 91.1658 5.34281 93.0062 5.34281 95.1508C5.03279 94.4291 4.7796 93.9084 4.57292 93.3671C-0.361624 80.4376 -0.604476 67.3587 3.17264 54.1045C4.46441 49.5781 6.45889 45.5055 9.51779 41.9071C13.3569 37.3911 18.2036 35.9785 23.9132 36.9219C26.9566 37.4272 29.9897 38.1747 33.0537 38.3448C40.267 38.7469 45.7492 35.1021 50.5546 30.2252C51.7895 28.9725 52.7454 27.4517 53.6703 26.266C50.7406 27.9518 47.8057 30.0242 44.5763 31.4213C35.7355 35.2413 26.7189 36.1796 17.6611 31.9986C11.5174 29.1632 8.3242 24.307 8.01418 17.6051C7.69899 10.7538 10.9284 5.78407 16.6483 2.3455C20.751 -0.123882 25.2102 0.0153108 29.3231 1.98463C36.1643 5.26338 43.2174 5.66549 50.5494 4.75817C56.0988 4.07251 61.6896 3.52605 67.2338 4.63959C74.9586 6.19133 81.8514 9.16077 86.1246 16.3627C89.1473 21.4561 93.9165 24.4255 99.3316 26.3949C103.625 27.9569 108.017 29.2457 112.337 30.7408C113.722 31.2202 115.143 31.7976 116.311 32.6534C117.912 33.8236 117.473 35.7826 115.53 36.2569C114.177 36.5868 112.73 36.5353 111.371 36.6487C112.306 38.4015 115.406 39.9893 117.318 39.4996C118.806 39.1129 119.4 39.8759 119.411 41.0926C119.421 42.1958 119.292 43.3918 118.863 44.3919C117.277 48.0883 115.649 51.7743 113.836 55.3624C111.386 60.2083 106.927 62.1261 101.889 63.054C97.5903 63.8479 93.5135 63.5902 89.8656 60.7857C88.8115 59.9763 88.3981 59.2494 88.548 57.8524C89.199 51.6248 86.9927 46.0055 84.5177 40.0099C83.4429 41.3967 82.5232 42.4432 81.7584 43.5929C79.95 46.3045 78.2552 49.0935 76.4054 51.7794C76.0747 52.264 75.1704 52.7126 74.6331 52.6198C73.7133 52.4599 72.5869 52.5476 72.2562 51.0113C71.5638 47.7841 70.5769 44.6188 69.6779 41.4328C69.5229 40.8915 69.2025 40.3914 68.784 39.4944C67.7815 41.0668 66.9445 42.3247 66.1643 43.6135C65.2755 45.0827 64.454 46.5932 63.5601 48.0625C61.9479 50.7226 59.8036 52.5321 56.5122 52.8827C53.8563 53.1611 51.9342 54.785 50.6838 57.0997C49.8105 58.7133 49.0665 60.3991 48.3224 62.0745C47.2322 64.5439 45.6149 66.4823 43.1967 67.7814C42.2615 68.2866 41.4864 69.0909 40.639 69.7611C40.7217 69.8951 40.8043 70.0291 40.8818 70.1683C41.8429 70.0188 42.7988 69.8693 43.7341 69.7198C44.7726 72.2098 43.9562 73.3594 40.4633 74.3596C42.4836 79.4272 45.6355 83.0771 51.2986 84.2319C53.9855 84.7784 56.4089 84.7629 58.8477 83.3916C60.5425 82.443 62.3406 81.613 64.1853 81.0202C66.6086 80.2417 68.6289 81.1955 70.1532 83.1287C71.6103 84.9743 71.9565 86.9642 70.5408 89.1243C74.168 89.9388 76.0643 92.3618 76.6637 95.8158C77.1133 98.4141 75.899 100.28 73.7392 101.342C74.9431 102.1 76.4984 102.631 77.2941 103.714C78.0898 104.801 78.5084 106.461 78.4257 107.833C78.219 111.215 75.589 112.792 69.2593 113.674C69.4557 113.937 69.5797 114.169 69.7605 114.344C71.414 115.968 71.5483 117.504 69.9207 119.319C67.0995 122.469 63.5497 124.618 59.3747 125.124C49.6348 126.294 40.3186 124.788 31.7516 119.752C20.7045 113.266 17.3924 99.9504 24.9725 89.6346C27.2201 86.5776 29.5505 83.5772 31.6845 80.4428C32.8109 78.7879 33.772 76.9784 34.5264 75.1277C38.381 65.6471 33.4568 55.2386 23.4172 51.5578C21.9859 51.0319 20.4926 50.6865 18.7978 50.1916L18.8082 50.1968Z" fill="#1D1D1B"/>
<path d="M93.3792 98.0014C91.6121 98.12 91.1729 97.8055 91.3227 95.764C91.4467 94.0215 91.9066 92.2997 92.2166 90.5881C87.4319 90.5056 86.2538 86.1855 88.9252 82.4015C86.3882 81.9015 85.7836 81.0096 86.5845 78.4681C88.0416 73.8335 91.8859 72.0807 96.1539 71.2919C102.835 70.0547 108.173 72.7406 111.769 78.2052C116.471 85.3504 116.972 93.1451 113.329 100.888C111.123 105.575 107.258 108.611 101.926 109.24C98.1846 109.678 95.3737 107.884 94.3145 104.281C93.7254 102.28 93.6841 100.12 93.3947 98.0117L93.3792 98.0014Z" fill="#1D1D1B"/>
<path d="M77.0461 55.1458C78.8391 52.3619 80.5391 49.7069 82.4199 46.7891V56.8058C80.4616 56.2026 78.8081 55.6922 77.0461 55.1509V55.1458Z" fill="#1D1D1B"/>
<path d="M63.3069 52.4136C64.3713 50.6402 65.4357 48.8668 66.774 46.6294C67.208 48.9235 67.5232 50.7639 66.4071 52.228C65.9576 52.8157 64.5366 52.6611 63.5549 52.8467C63.4722 52.7023 63.3896 52.558 63.3069 52.4136Z" fill="#1D1D1B"/>
</g>
<defs>
<clipPath id="clip0_1072_956">
<rect width="118.842" height="125" fill="white" transform="translate(0.578857 0.5)"/>
</clipPath>
</defs>
</svg>
