<svg width="208" height="126" viewBox="0 0 208 126" fill="none" xmlns="http://www.w3.org/2000/svg">
<g clip-path="url(#clip0_1072_992)">
<path d="M129.233 62.9971C128.888 63.4923 128.524 64.0058 127.759 65.1001C127.204 63.0032 126.766 61.3404 126.291 59.5492C125.902 60.0627 125.489 60.6068 124.927 61.3465C123.237 59.3352 123.391 57.0977 123.909 54.8969C124.421 52.69 125.174 50.5381 125.976 47.8421C124.471 48.5879 123.342 49.1503 122.027 49.8045C122.114 46.1548 125.186 45.4945 127.728 44.3452L127.413 43.5138C125.415 43.8562 123.416 44.1924 121.176 44.5775C121.978 42.7985 123.508 42.0283 125.279 41.8815C127.123 41.7348 127.654 40.83 128.08 39.155C128.74 36.5385 129.671 33.928 130.887 31.5194C131.93 29.4531 133.552 29.2636 135.286 30.8469C137.087 32.4914 138.778 34.2948 140.283 36.2144C141.332 37.5533 142.424 37.8834 144.084 37.8528C146.971 37.7917 149.871 38.2013 152.77 38.2441C153.776 38.2563 154.973 38.024 155.756 37.4616C158.039 35.8049 160.075 33.818 162.358 32.1674C164.27 30.7797 165.325 31.1159 166.047 33.3289C166.732 35.4258 167.077 37.6327 167.546 39.7969C167.694 40.4938 167.762 41.2091 167.873 41.9794C170.643 41.9488 173.327 40.7017 175.955 42.7374C174.259 43.1287 172.797 43.4649 170.841 43.9234C172.741 44.9504 174.135 45.7024 175.536 46.4543C175.474 46.6133 175.419 46.7722 175.357 46.9312L171.304 47.622C171.273 47.7687 171.242 47.9154 171.211 48.0622C172.322 48.5818 173.426 49.1075 175.018 49.8595C173.555 50.373 172.624 50.7031 171.705 51.021C172.21 54.6096 176.683 59.3413 180.36 59.9954C182.847 60.4356 185.389 60.6435 187.912 60.8391C193.039 61.2365 196.975 63.5167 199.69 67.8695C206.488 78.7757 209.481 90.5134 207.291 103.278C206.334 108.86 203.743 113.769 200.06 118.091C196.543 122.217 191.922 123.972 186.598 124.039C177.646 124.155 168.688 124.21 159.736 124.271C156.102 124.296 156.071 124.241 156.651 120.194C155.621 121.264 154.899 122.101 154.084 122.841C152.536 124.247 151.913 124.088 151.129 122.168C149.556 122.89 147.989 123.611 146.416 124.332C146.194 124.161 145.965 123.996 145.743 123.825C146.669 121.374 147.594 118.922 148.519 116.471C148.39 116.391 148.266 116.318 148.137 116.238C147.026 117.498 145.805 118.678 144.818 120.029C140.949 125.305 135.508 125.567 129.721 124.809C128.394 124.638 128.29 123.856 128.913 122.933C129.863 121.52 130.93 120.182 131.911 118.788C132.608 117.785 133.237 116.734 133.558 115.45C130.967 117.724 128.333 119.949 125.797 122.278C123.224 124.638 120.133 125.463 116.759 125.531C114.593 125.574 114.161 124.846 115.222 123.006C116.358 121.031 117.53 119.087 118.801 116.941C115.734 119.68 112.859 122.248 109.984 124.815C109.781 124.779 109.571 124.736 109.368 124.699C109.898 122.7 110.423 120.695 111.021 118.427C108.047 120.744 105.222 122.951 102.39 125.158C102.118 124.932 101.841 124.699 101.569 124.473C102.032 123.574 102.359 122.566 102.988 121.789C108.806 114.569 114.673 107.392 120.541 100.203C121.059 99.5734 121.731 99.0415 122.151 98.3629C125.31 93.246 130.628 92.5063 135.878 91.7788C138.661 91.3937 141.172 92.5124 143.393 94.1386C145.071 95.3674 146.619 96.7673 148.297 97.9961C148.822 98.3813 149.574 98.4607 150.216 98.6808C150.222 98.0634 150.346 97.4276 150.216 96.8407C150.012 95.9237 149.648 95.0434 149.655 93.8268C150.42 94.4259 151.259 94.9517 151.944 95.6302C154.732 98.4057 157.447 101.255 160.254 104.012C160.698 104.446 161.469 104.544 162.092 104.8C162.074 104.177 162.222 103.498 162.018 102.936C161.395 101.212 160.636 99.5367 159.76 97.4459C161.735 98.3629 163.345 99.2066 165.023 99.8729C167.164 100.729 169.329 101.566 171.544 102.19C174.74 103.089 178.627 101.719 180.182 99.1088C178.8 98.7786 177.504 98.473 175.881 98.0878C176.628 97.4154 177.14 96.9079 177.689 96.4617C181.286 93.5334 183.748 89.7553 185.746 85.6655C185.975 85.2008 185.722 84.51 185.691 83.9232C185.222 84.1799 184.519 84.3205 184.327 84.7118C181.656 90.1466 178.047 94.756 172.784 97.9656C172.612 98.0695 172.507 98.3079 172.42 98.5035C172.365 98.6258 172.389 98.7909 172.365 99.1882C173.148 99.4939 174 99.8301 174.851 100.16L174.709 100.839C172.636 100.399 170.446 100.234 168.509 99.4511C165.134 98.0878 161.914 96.3394 158.631 94.7499C158.23 94.5543 157.866 94.2364 157.447 94.1264C156.854 93.9735 156.225 93.9552 155.608 93.8818C155.744 94.4687 155.769 95.1167 156.04 95.6302C156.435 96.37 157.009 97.0119 157.151 97.9961C155.923 96.8651 154.794 95.5936 153.443 94.6338C151.092 92.9648 148.624 91.4487 146.157 89.9509C145.749 89.7064 145.058 89.9143 144.503 89.9081C144.676 90.4767 144.725 91.1247 145.04 91.5954C145.546 92.3596 146.218 93.0076 146.693 93.9857C140.943 89.4496 134.731 88.9911 128 91.6443C132.232 85.0908 135.748 78.6229 133.367 70.1986C136.816 71.3174 140.258 69.8746 143.053 73.0414C145.669 76.0063 150.444 75.2299 153.751 71.7637C154.782 70.6816 155.781 70.3026 157.225 70.2476C161.988 70.0764 165.794 67.9367 168.719 64.2626C169.039 63.8591 168.941 63.1316 169.033 62.5508C168.478 62.7831 167.75 62.8687 167.404 63.2722C164.369 66.873 160.482 68.4686 155.806 68.5786C154.917 68.5969 153.819 69.1899 153.196 69.8563C149.685 73.616 145.755 74.4108 142.412 70.1925C141.974 69.6423 141.073 69.3183 140.332 69.1777C139.247 68.9699 138.099 68.9026 136.989 68.976C133.089 69.2327 130.862 67.3498 129.875 63.749C129.82 63.5412 129.684 63.3517 129.567 63.1683C129.536 63.1133 129.437 63.101 129.24 63.0093L129.233 62.9971ZM142.788 52.1214C141.4 52.9651 140.419 53.7904 139.29 54.1266C138.846 54.2611 137.525 53.2952 137.544 52.8673C137.599 51.6507 138.13 50.4586 138.537 49.0525C138.463 49.0158 138.031 48.7468 137.562 48.594C135.088 47.787 134.286 48.3984 134.354 50.9966C134.471 55.4043 136.717 57.0794 141.937 56.6514C144.09 56.4741 144.546 55.8017 143.744 53.7781C143.46 53.0568 142.961 52.421 142.788 52.1275V52.1214ZM151.604 51.4918C150.981 52.6044 150.093 53.9738 149.476 55.4593C149.321 55.8261 149.92 56.8776 150.389 57.061C154.806 58.8033 159.094 55.9301 159.051 51.2717C159.045 50.5442 158.779 49.4377 158.286 49.1992C157.613 48.8691 156.608 49.1992 156.256 49.2115C156.54 50.7643 157.003 51.9625 156.861 53.0873C156.799 53.5764 155.269 54.4262 154.819 54.2183C153.776 53.7415 152.986 52.7267 151.604 51.4856V51.4918ZM136.742 39.0388C135.508 36.624 134.379 34.4171 133.25 32.2163L132.448 32.4058C132.281 35.0896 132.115 37.7734 131.917 40.934C133.854 40.1698 135.125 39.6685 136.742 39.0388ZM164.172 42.1628C163.974 39.2895 163.814 36.9908 163.653 34.6922C163.382 34.6372 163.11 34.5822 162.833 34.5272C161.519 36.2083 160.205 37.8895 158.724 39.7785C160.587 40.5977 162.049 41.2335 164.172 42.1628ZM143.738 59.1212C144.849 61.4504 145.879 63.6023 146.736 65.3874C147.588 63.5167 148.587 61.3343 149.599 59.1212H143.738Z" fill="#1D1D1B"/>
<path d="M97.0161 13.283C96.7446 14.6157 96.5102 15.9607 96.2017 17.2873C95.7945 19.0112 95.3133 20.723 94.8876 22.4408C94.32 24.715 94.5791 26.604 96.393 28.4931C97.4294 29.569 97.8366 31.5497 97.923 33.1576C98.0464 35.4195 98.8731 36.9478 100.631 38.3906C104.932 41.918 109.047 45.6594 113.446 49.4986C109.145 52.2741 104.802 52.5247 100.175 51.8217C94.2151 50.9169 89.8286 47.7379 85.9047 43.4036C83.8009 41.0866 81.2097 39.0019 78.4519 37.5042C72.6526 34.3558 66.8162 35.3951 62.0286 39.9617C55.7542 45.9528 54.2426 53.5028 54.8781 61.7437C55.2544 66.5916 57.1176 70.8893 59.6163 74.9974C60.1531 75.8778 60.4924 77.0576 60.4369 78.0725C60.2148 82.1256 61.2019 85.8303 63.2132 89.3272C68.3154 98.1977 75.3116 105.436 83.1099 111.959C87.2744 115.437 91.5622 118.769 95.7945 122.174C96.1832 122.486 96.5287 122.847 96.8125 123.825C95.3195 123.825 93.8264 123.849 92.3334 123.825C87.3361 123.733 82.3387 123.66 77.3476 123.458C76.6874 123.434 75.5152 122.737 75.4905 122.303C75.2067 117.302 72.8438 113.469 68.957 110.424C69.1791 110.259 69.284 110.143 69.4074 110.094C70.2279 109.758 71.0546 109.434 71.8752 109.104C70.9868 108.835 70.0737 108.26 69.2161 108.34C62.3988 108.957 55.5074 109.238 48.8073 110.516C41.2002 111.965 38.8311 115.168 37.9365 122.804C37.8933 123.165 37.8008 123.513 37.7021 124.021H34.2533C35.1294 119.148 36.4127 114.196 31.1439 110.522C33.4081 110.522 35.6723 110.547 37.9365 110.516C40.1329 110.479 42.3292 110.382 44.5256 110.314C44.5318 109.893 44.5441 109.477 44.5503 109.055C42.3909 108.896 40.2378 108.731 37.6836 108.541C39.3308 104.757 37.4491 101.713 36.0918 98.5095C32.2605 89.4433 31.9089 79.9676 33.0873 70.3696C35.8636 47.7685 48.2026 31.3297 66.847 18.944C67.5195 18.4977 68.0933 17.7213 68.4202 16.9694C71.0608 10.8682 74.7564 5.56794 80.3028 1.73486C81.3084 1.04405 82.7027 0.909556 83.9181 0.524414C84.0477 1.72875 84.2883 2.93919 84.2821 4.14353C84.276 9.15037 84.1464 14.1572 84.1834 19.1702C84.1834 19.9344 84.8251 20.6924 85.1644 21.4566C85.8245 20.9736 86.534 20.5457 87.1263 19.9955C89.2239 18.0331 91.2167 15.9545 93.3946 14.0777C94.1719 13.4114 95.3565 13.2096 96.3559 12.7939C96.5657 12.9651 96.7816 13.1363 96.9914 13.3136L97.0161 13.283ZM51.2751 89.8224C51.1764 86.943 50.2941 83.6784 47.9435 81.0069C44.6305 77.2288 39.3247 78.2742 37.6281 82.9571C36.5977 85.7998 36.7026 88.618 37.8502 91.3996C40.1761 97.0361 42.1688 97.8431 47.851 95.4833C50.5964 94.3463 51.2812 93.3314 51.2689 89.8224H51.2751ZM73.0968 18.4305C75.8792 19.0235 78.3779 19.5553 80.9074 20.0933C81.4503 14.1939 81.9686 8.54515 82.5238 2.49292C77.5573 6.96179 74.8366 12.1643 73.0968 18.4305ZM94.8321 16.6087C94.61 16.4681 94.3879 16.3275 94.1658 16.1807C92.3951 18.3021 90.6306 20.4173 88.6995 22.7343C90.2049 23.5718 91.1427 24.0976 92.3087 24.7517C93.2033 21.8601 94.0177 19.2374 94.8321 16.6087ZM94.7272 33.5733C94.7519 31.9227 91.6794 29.0983 90.6861 29.514C90.0815 29.7708 89.261 31.0423 89.3535 31.1524C90.4825 32.4362 91.7041 33.6589 93.0676 34.6859C93.2588 34.8326 94.32 33.8545 94.7272 33.5733ZM86.7746 33.2921C85.5654 35.9391 86.1454 38.2072 88.1319 39.1425C89.952 39.9984 91.6116 39.4543 92.3889 37.7548C88.9648 37.2719 88.7551 37.1129 86.7746 33.2921Z" fill="#1D1D1B"/>
<path d="M66.8716 48.9665C66.8778 45.9649 67.6614 43.2811 70.0181 41.1965C73.4854 38.1275 76.6195 37.8769 80.2657 40.7074C82.3695 42.3397 84.4919 44.0697 86.1515 46.1177C90.4331 51.4058 96.2387 53.2948 102.661 53.7716C104.771 53.9306 105.851 54.7192 106.653 56.5716C109.065 62.1286 109.145 62.1225 104.635 66.4019C103.673 67.3128 102.606 68.1686 101.458 68.8228C98.0464 70.7729 94.7333 70.5345 91.7349 67.9363C90.1123 66.5241 88.5946 64.9897 87.0584 63.4797C84.9361 61.395 82.4251 60.0929 79.5069 59.3898C77.0822 58.803 74.6761 58.0449 72.344 57.1523C68.3153 55.6057 66.8655 53.3193 66.8655 48.9604L66.8716 48.9665Z" fill="#1D1D1B"/>
<path d="M73.2448 123.617H39.8182C39.701 119.9 40.3056 116.33 43.9457 114.319C50.7692 110.553 58.1418 109.397 65.755 111.121C70.5734 112.216 74.1888 118.396 73.251 123.617H73.2448Z" fill="#1D1D1B"/>
<path d="M16.1272 124.259C11.7345 124.259 7.34796 124.302 2.95524 124.247C-0.135701 124.21 -0.586077 123.452 0.598475 120.585C1.65964 118.005 3.52901 116.183 6.00916 114.936C12.08 111.886 18.6629 110.932 25.3075 111.054C31.8842 111.176 35.3268 117.424 32.3531 123.25C32.0631 123.819 30.9403 124.247 30.1938 124.259C25.5049 124.351 20.8161 124.308 16.1272 124.308C16.1272 124.29 16.1272 124.271 16.1272 124.259Z" fill="#1D1D1B"/>
<path d="M73.2325 59.4021C66.5262 62.3793 62.9417 67.0622 61.2759 73.2978C61.0723 73.3162 60.8626 73.3406 60.659 73.359C59.8323 71.6961 58.8821 70.0822 58.1973 68.3643C54.5264 59.2187 56.6303 47.64 63.0651 41.4594C65.4095 39.2097 68.155 37.7303 71.6469 37.5591C67.2727 40.1756 65.1504 43.9414 65.0579 48.8994C64.9591 54.1569 67.6367 57.4764 73.2387 59.4083L73.2325 59.4021Z" fill="#1D1D1B"/>
<path d="M111.965 54.9761C111.589 55.4896 110.965 55.9664 110.885 56.5166C110.768 57.3297 110.848 58.3017 111.237 58.9864C111.41 59.2921 112.557 59.1454 113.236 59.0415C113.81 58.9498 114.353 58.638 114.889 58.3934C117.622 57.1463 117.826 56.3883 116.154 53.8879C115.772 53.3194 115.438 52.7202 115.315 51.9438C117.419 52.0906 118.27 53.7167 118.819 55.2145C119.06 55.8625 117.986 56.9874 117.505 57.8921C117.474 57.9472 117.382 57.9777 117.32 58.0144C111.663 61.7864 108.794 60.7104 106.61 53.4355C107.751 54.3647 108.485 54.9639 109.398 55.7036C110.028 55.404 110.848 55.0189 111.669 54.6337C111.767 54.7499 111.866 54.866 111.965 54.9761Z" fill="#1D1D1B"/>
</g>
<defs>
<clipPath id="clip0_1072_992">
<rect width="208" height="125" fill="white" transform="translate(0 0.5)"/>
</clipPath>
</defs>
</svg>
