<svg width="125" height="125" viewBox="0 0 125 125" fill="none" xmlns="http://www.w3.org/2000/svg">
<g clip-path="url(#clip0_1072_927)">
<path d="M0.0229828 83.8432C0.0229828 70.831 0.00219295 57.8212 0.0345327 44.8091C0.0460826 39.9004 2.16434 35.985 6.24145 33.3193C21.8038 23.1438 37.3754 12.9822 53.0324 2.95687C59.2047 -0.995509 65.7165 -0.977029 71.8934 2.95687C84.3927 10.9171 96.7719 19.0667 109.195 27.147C112.646 29.3923 116.173 31.5383 119.5 33.9568C123.327 36.738 124.898 40.7574 124.907 45.4097C124.928 57.9968 124.926 70.5862 124.926 83.1733C124.926 96.6081 124.917 110.043 124.912 123.478C124.912 124.473 124.405 124.972 123.39 124.975C107.375 124.975 91.3619 124.975 75.3468 124.975C74.3412 124.975 73.8377 124.475 73.8361 123.476C73.8361 113.889 73.8176 104.305 73.8615 94.7186C73.8661 93.5959 73.5289 93.2979 72.4409 93.3048C65.7419 93.351 59.0453 93.3557 52.3464 93.3118C51.3253 93.3048 51.0412 93.582 51.0458 94.6031C51.0828 104.266 51.0481 113.928 51.092 123.591C51.0967 124.709 50.7733 125 49.6737 124.998C33.5824 124.963 17.4911 124.963 1.39973 124.998C0.270151 125 -0.00473699 124.667 -0.00242701 123.57C0.0345327 110.327 0.0206728 97.084 0.0206728 83.8432H0.0229828ZM11.2934 78.7589C11.2934 89.8838 11.2934 101.006 11.2934 112.131C11.2934 113.171 11.8254 113.692 12.8896 113.695C21.3972 113.693 29.9026 113.67 38.4102 113.704C39.4474 113.709 39.8078 113.471 39.8032 112.374C39.7616 102.79 39.7801 93.2055 39.7754 83.6214C39.7754 82.0368 39.7639 82.0344 41.3162 82.0344C55.4048 82.0344 69.4933 82.0344 83.5819 82.0344C85.1481 82.0344 85.1365 82.0344 85.1365 83.6122C85.1319 93.1963 85.1365 102.78 85.1227 112.364C85.1227 113.191 85.1712 113.72 86.2615 113.714C94.9609 113.674 103.66 113.677 112.36 113.714C113.404 113.718 113.669 113.369 113.644 112.381C113.57 109.419 113.575 106.453 113.561 103.49C113.466 84.0903 113.369 64.6888 113.291 45.2896C113.286 43.9706 112.794 43.005 111.681 42.3051C110.181 41.3626 108.708 40.3809 107.225 39.4176C93.3785 30.4202 79.5325 21.4252 65.6865 12.4278C64.2566 11.4969 62.6535 11.1296 61.0504 11.6054C59.7891 11.9797 58.581 12.6542 57.4653 13.3749C42.7322 22.9128 28.0269 32.4923 13.2892 42.0256C11.8778 42.938 11.261 44.0376 11.268 45.7285C11.3142 56.7378 11.2911 67.7449 11.2911 78.7543L11.2934 78.7589Z" fill="#3E73C7"/>
<path d="M49.6206 73.2334C49.0108 73.2057 48.3894 73.2427 47.7958 73.1318C47.4007 73.0579 47.045 72.7761 46.6731 72.5866C46.9364 72.224 47.1259 71.6603 47.4747 71.5333C49.1679 70.9096 50.8195 71.1406 52.3164 72.15C53.5453 72.9793 53.6516 73.9819 52.5982 75.0352C50.875 76.7585 48.759 77.8072 46.3335 77.8996C43.0326 78.0266 39.7224 77.9596 36.4168 77.9296C35.3057 77.9204 34.1877 77.8257 33.0858 77.6732C28.8123 77.0819 25.71 74.236 24.95 69.9948C24.0053 64.7258 25.1903 59.9718 28.9001 55.9987C30.2884 54.511 32.0255 53.5177 33.9959 52.961C35.5829 52.5129 37.2207 50.5471 37.2784 48.9024C37.387 45.6823 39.4244 42.6031 43.2774 42.0926C44.6172 41.9147 45.8854 41.194 47.1859 40.7228C47.5786 40.5795 47.9713 40.4386 48.692 40.1753C48.5996 41.1524 48.4957 41.9124 48.468 42.6724C48.4472 43.2429 48.4633 43.8274 48.5696 44.3887C48.9346 46.3406 49.3688 48.2787 49.7153 50.233C49.7639 50.5055 49.5513 50.9791 49.3157 51.12C47.9575 51.9308 46.5599 52.7739 44.899 51.9562C44.0397 51.5335 43.1804 51.0853 42.3973 50.5402C41.2516 49.7432 41.1153 48.5351 41.4479 47.1999L41.1268 47.1676C40.9998 47.394 40.8011 47.6088 40.7619 47.8491C40.5701 49.0341 40.8496 50.1198 41.836 50.8405C42.73 51.4919 43.6978 52.0809 44.7073 52.5291C47.0219 53.5593 48.2485 55.4396 47.6456 57.9321C47.0797 60.2652 46.2665 62.5682 45.2917 64.765C44.2938 67.0127 43.4622 69.258 43.4345 71.7273C43.4114 73.871 44.3839 74.6841 46.4744 74.3468C47.5417 74.1759 48.5973 73.938 49.6599 73.7301C49.646 73.5638 49.6345 73.3997 49.6206 73.2334ZM31.8176 64.0374L32.0324 64.3677C32.2496 64.1806 32.4829 64.012 32.6769 63.8064C34.0814 62.3142 35.8347 61.9931 37.7543 62.3326C38.1239 62.3973 38.6367 62.6514 38.7637 62.954C39.6993 65.1739 40.2698 67.5209 40.0573 69.9163C39.9049 71.6349 38.4704 72.649 37.1652 73.6238C37.1167 73.6608 37.1144 73.7601 37.0081 74.0812C38.2856 74.2568 39.5122 74.4231 40.6648 74.5825C40.6648 73.0117 40.7896 71.695 40.6371 70.4129C40.3599 68.0591 39.8979 65.7283 39.5561 63.3837C39.4498 62.656 39.4105 61.903 39.4798 61.173C39.5468 60.4754 39.8009 59.7986 39.9718 59.1125C39.8263 59.0779 39.6808 59.0409 39.5353 59.0063C39.2488 59.9649 38.9624 60.9212 38.6644 61.9238C35.9155 61.4109 33.5178 61.732 31.8153 64.042L31.8176 64.0374Z" fill="black"/>
<path d="M80.6877 66.9759C81.2767 68.981 81.7225 71.0438 82.4964 72.9749C83.2494 74.853 85.0766 75.5159 86.9038 75.9918C87.6753 76.1927 88.4746 76.2828 89.3362 76.4353C89.0382 77.4563 88.1859 77.6573 87.449 77.7035C84.8803 77.8605 82.3046 77.9114 79.7313 77.9668C78.6202 77.9922 77.5091 77.9322 76.398 77.9137C75.7166 77.9021 74.915 77.8513 74.9635 76.9989C74.9889 76.56 75.5641 75.9086 76.0123 75.7839C77.2989 75.4235 78.6456 75.2757 79.9716 75.0585C80.4128 74.9869 80.8609 74.9523 81.3137 74.9015C81.2767 74.7028 81.2906 74.5989 81.2467 74.5573C78.6526 72.111 78.6179 68.9694 78.8928 65.7678C79.0845 63.5387 80.3181 62.3536 82.5518 62.2243C84.7324 62.0995 86.5273 62.9334 87.9225 64.6174C88.142 64.8831 88.3499 65.1603 88.5739 65.4213C88.6132 65.4675 88.7125 65.4629 89.0036 65.5414C88.9066 65.1949 88.8904 64.927 88.7657 64.7237C87.3081 62.3421 84.0302 61.037 81.3137 61.7392C79.3964 62.2335 78.41 63.6934 78.1605 66.0796C78.052 67.1168 77.7101 68.1425 77.3659 69.1357C76.8092 70.7319 76.174 72.3027 75.5479 73.8758C74.9335 75.4189 73.9494 76.5831 72.2401 76.9689C71.3114 77.1791 70.5029 77.0174 70.1495 76.0518C69.7938 75.0816 70.2027 74.4787 71.1959 74.1114C71.6441 73.9451 72.0691 73.4716 72.307 73.0327C73.6653 70.5287 74.3075 67.8583 74.5223 64.9893C74.7579 61.8616 75.3262 58.7408 76.0307 55.6801C76.2479 54.7399 77.3751 53.9984 78.1074 53.1899C78.3338 52.9405 78.6387 52.7603 79.1123 52.3884C77.1811 52.4854 75.5872 54.2433 75.1922 56.2969C74.8064 58.295 74.3722 60.2816 73.9587 62.2751C73.8339 62.3005 73.7069 62.3259 73.5822 62.3513C73.2287 60.9284 72.8753 59.5077 72.508 58.034C72.5542 58.0571 72.508 58.0155 72.4849 58.0247C69.8677 59.0388 68.4078 57.7522 67.0403 55.6316C65.5065 53.2546 63.5938 51.1248 61.8844 48.8587C61.5518 48.4175 61.1799 47.8192 61.2238 47.3295C61.2838 46.6735 61.5749 45.8096 62.0646 45.4954C62.4434 45.2505 63.4644 45.5116 63.8756 45.895C65.5573 47.4727 67.1234 49.1729 68.7127 50.8453C69.8885 52.0812 69.9024 52.0234 71.1243 50.8338C72.1846 49.7989 73.3442 48.8218 74.5962 48.0387C76.7769 46.6712 77.2666 44.0771 75.6011 42.1783C74.9959 41.4899 74.4646 40.7207 74.0003 39.9283C73.1617 38.4915 73.3789 37.0224 74.6424 35.9806C74.9612 35.7172 75.7304 35.6133 76.0631 35.8143C77.6154 36.7475 79.1169 37.0455 80.884 36.3433C81.9235 35.9298 83.0323 36.3248 83.8593 37.1448C85.1944 38.4661 86.7329 39.1014 88.6479 38.9628C90.1355 38.8542 91.2581 40.0554 91.272 41.5731C91.2789 42.4116 90.8677 42.996 89.9992 42.7535C88.8696 42.4393 87.7932 41.9288 86.4233 41.3975C86.1392 43.0745 85.8435 44.7885 85.5617 46.5049C84.8156 51.044 86.5897 54.9294 89.0128 58.4983C91.4314 62.0626 93.1177 65.881 94.1156 70.0366C94.7739 72.7832 97.301 74.488 100.066 73.7049C101.766 73.2244 103.314 72.2011 104.922 71.4041C105.254 71.2401 105.555 71.0068 105.929 70.7689C105.987 70.9883 106.065 71.1177 106.03 71.1893C104.058 75.3219 100.205 77.9714 95.3191 76.5208C95.2821 76.5092 95.2382 76.5046 95.2105 76.4815C93.4572 75.017 91.5145 75.2849 89.4471 75.6453C87.6546 75.9594 85.9521 75.2618 84.4298 74.2778C83.3742 73.594 82.8567 72.5638 82.5795 71.3348C82.3046 70.1036 81.8657 68.9094 81.4592 67.7105C81.3483 67.3871 81.0919 67.1122 80.9025 66.8165L80.683 66.9713L80.6877 66.9759Z" fill="black"/>
</g>
<defs>
<clipPath id="clip0_1072_927">
<rect width="124.926" height="125" fill="white"/>
</clipPath>
</defs>
</svg>
