<svg width="119" height="122" viewBox="0 0 119 122" fill="none" xmlns="http://www.w3.org/2000/svg">
<path d="M97.6706 124.844H77.1035C77.2479 124.007 77.3518 123.314 77.4846 122.627C81.0096 104.38 78.8761 86.9294 70.192 70.3765C69.808 69.6462 69.7272 68.6562 69.7965 67.8134C70.039 64.8088 69.0372 62.4305 66.4937 60.4043C65.593 62.1159 64.7962 63.6341 63.9849 65.1725C62.8936 64.1853 61.9178 63.23 60.8641 62.367C59.8594 61.5444 59.0048 61.6079 58.5487 62.9991C58.4188 63.4003 58.1445 63.7726 58.0896 64.1767C57.9222 65.4293 57.134 65.8305 56.037 66.3068C54.8273 66.8321 53.7303 67.8163 52.8324 68.8236C50.722 71.1875 48.7588 73.6842 46.5531 76.3511C47.3731 79.604 49.4055 82.2074 53.1904 83.6679C57.9799 85.5151 58.6064 89.5906 54.6657 92.9041C52.7169 94.5435 50.2889 95.6403 48.014 96.8583C45.7303 98.0821 43.7845 99.583 42.4103 101.843C40.9061 104.316 40.4933 106.796 41.3363 109.627C41.983 111.798 42.5604 114.107 42.4969 116.335C42.442 118.231 41.6625 120.22 40.7791 121.949C39.7542 123.958 38.0624 125.13 35.4959 124.985C31.942 124.783 28.3678 125.008 24.8053 124.893C23.6562 124.855 22.4004 124.547 21.4015 123.992C12.9281 119.276 9.09415 109.434 12.0851 100.198C13.1879 96.789 15.1424 94.0528 18.552 92.5635C22.487 90.8461 26.8291 92.4855 28.1917 96.2262C29.1329 98.8008 28.033 101.43 25.3942 102.732C24.9208 101.205 24.1153 99.9293 22.3138 99.9726C20.6162 100.013 19.3171 100.896 18.4914 102.36C15.7949 107.154 16.2078 117.117 22.7584 121.424C29.4938 125.851 37.6467 122.558 39.3933 114.661C40.0805 111.555 39.7687 108.536 38.6687 105.578C37.2165 101.673 35.5594 97.831 34.3353 93.8565C29.5833 78.3975 31.1827 63.2992 37.2801 48.5243C38.1779 46.3509 39.2634 44.2525 40.1844 42.0878C41.0447 40.0674 40.9033 38.0787 39.708 36.1997C38.3627 34.0812 37.0982 33.9022 35.1697 35.5474C31.3097 38.8436 26.8175 40.6129 21.7739 40.8294C11.3662 41.2796 2.00942 33.6915 0.167507 23.4163C-0.476297 19.82 0.710265 16.7345 4.05054 15.2683C6.87981 14.0272 10.0036 13.0227 13.058 12.8091C20.0013 12.3271 25.8388 9.66308 31.1711 5.37981C34.3382 2.83697 37.7968 0.703994 42.061 0.447114C43.4352 0.366297 44.8036 0.170028 46.1721 0.0285996C48.1468 -0.176328 49.5383 0.776152 50.595 2.31455C52.4831 5.05943 53.482 8.15643 52.8642 11.4122C52.2146 14.8267 51.0511 18.1459 50.0782 21.4969C49.1399 24.7354 48.115 27.9478 47.2258 31.1978C46.9949 32.0464 47.0613 33.0017 47.1074 33.9022C47.3788 39.1322 50.0089 42.717 54.3365 43.8225C59.0019 45.0145 63.8723 43.2048 66.2339 38.7224C67.9834 35.4002 69.0112 31.6856 70.2266 28.1008C70.7434 26.5797 70.9195 24.9403 71.572 23.347C71.6499 24.3053 71.725 25.2607 71.803 26.2189C72.4699 34.5661 75.7178 41.9839 80.8133 48.4146C86.7317 55.8843 93.0658 63.0395 99.475 70.0994C109.392 81.024 115.945 93.5477 118.601 108.1C118.899 109.725 118.408 110.254 116.93 110.513C109.785 111.769 102.685 106.011 102.469 98.7286C102.336 94.3183 104.804 92.2431 109.04 93.2042C109.1 89.0941 105.162 84.7012 100.405 83.5669C93.1466 81.8351 85.2218 86.6927 83.1114 94.656C80.4871 104.545 83.3337 113.175 90.3607 120.385C91.8533 121.917 94.1225 122.696 96.0539 123.79C96.5937 124.096 97.1971 124.293 97.7716 124.541C97.737 124.642 97.7023 124.746 97.6677 124.847L97.6706 124.844Z" fill="#3E73C7"/>
</svg>
