<?xml version="1.0" encoding="UTF-8"?>
<svg id="Capa_1" data-name="Capa 1" xmlns="http://www.w3.org/2000/svg" viewBox="0 0 200 200">
  <path d="M100,2.5C45.31,2.5,1.01,46.8,1.01,101.49c0,46.52,31.92,85.13,74.99,96.01-.5-1.24-.74-2.97-.74-4.7v-16.83h-12.38c-6.68,0-12.87-2.97-15.59-8.42-3.22-5.94-3.72-15.1-11.88-20.79-2.48-1.98-.5-3.96,2.22-3.72,5.2,1.48,9.4,4.95,13.36,10.14,3.96,5.2,5.69,6.44,13.12,6.44,3.46,0,8.9-.24,13.86-.99,2.72-6.93,7.42-13.12,13.12-16.08-33.16-3.96-49-20.29-49-42.57,0-9.65,4.2-18.81,11.14-26.73-2.22-7.67-5.2-23.51,.99-29.7,14.85,0,23.76,9.65,25.98,12.12,7.42-2.48,15.59-3.96,24-3.96s16.58,1.48,24,3.96c2.22-2.48,11.14-12.12,25.98-12.12,5.94,5.94,3.22,22.02,.74,29.7,6.93,7.67,10.89,17.08,10.89,26.73,0,22.27-15.59,38.61-48.5,42.07,9.16,4.7,15.59,18.06,15.59,27.96v22.54c0,.74-.24,1.48-.24,2.22,38.6-13.36,66.32-49.98,66.32-93.29C198.99,46.8,154.69,2.5,100,2.5h0Z"/>
</svg>