<svg width="512" height="512" viewBox="0 0 512 512" fill="none" xmlns="http://www.w3.org/2000/svg">
<path d="M376.471 0H135.529C60.6786 0 0 60.6786 0 135.529V376.471C0 451.321 60.6786 512 135.529 512H376.471C451.321 512 512 451.321 512 376.471V135.529C512 60.6786 451.321 0 376.471 0Z" fill="black"/>
<path d="M281.065 147.478H300.974V291.845C301.206 305.806 297.597 319.561 290.541 331.61C283.583 343.289 273.547 352.829 261.53 359.186C249.144 365.893 234.752 369.246 218.353 369.246C202.029 369.246 187.654 365.875 175.23 359.132C163.209 352.765 153.161 343.229 146.174 331.557C139.114 319.529 135.505 305.789 135.741 291.845V147.478H155.654V290.461C155.462 301.277 158.144 311.949 163.426 321.389C168.577 330.411 176.155 337.806 185.299 342.736C194.7 347.917 205.719 350.508 218.358 350.508C230.996 350.508 242.033 347.917 251.468 342.736C260.629 337.827 268.214 330.427 273.347 321.389C278.595 311.938 281.257 301.27 281.065 290.461V147.478ZM378.801 147.478V365.52H358.892V147.478H378.801Z" fill="white"/>
</svg>
