<?xml version="1.0" encoding="UTF-8"?>
<svg id="Capa_1" data-name="Capa 1" xmlns="http://www.w3.org/2000/svg" xmlns:xlink="http://www.w3.org/1999/xlink" viewBox="0 0 200 200">
  <defs>
    <style>
      .cls-1 {
        fill: #fff;
      }

      .cls-2 {
        fill: #336791;
      }

      .cls-3 {
        clip-path: url(#clippath);
      }

      .cls-4 {
        fill: none;
      }
    </style>
    <clipPath id="clippath">
      <rect class="cls-4" x="4.43" y="1.43" width="191.15" height="197.14"/>
    </clipPath>
  </defs>
  <g class="cls-3">
    <path d="M184.86,117.42c-1.03-3.11-3.71-5.27-7.19-5.79-1.64-.24-3.51-.14-5.73,.32-3.87,.8-6.74,1.1-8.84,1.16,7.91-13.35,14.34-28.58,18.04-42.92,5.99-23.18,2.79-33.74-.95-38.51-9.89-12.64-24.33-19.43-41.74-19.64-9.29-.11-17.44,1.72-21.7,3.04-3.96-.7-8.22-1.09-12.69-1.16-8.38-.13-15.78,1.69-22.1,5.45-3.5-1.18-9.12-2.85-15.61-3.92-15.26-2.51-27.56-.55-36.56,5.8-10.9,7.7-15.95,21.07-15.01,39.74,.3,5.93,3.61,23.97,8.84,41.08,3,9.83,6.2,18,9.51,24.27,4.7,8.9,9.72,14.14,15.36,16.02,3.16,1.05,8.9,1.79,14.95-3.24,.77,.93,1.79,1.85,3.14,2.7,1.72,1.09,3.83,1.97,5.93,2.5,7.58,1.89,14.68,1.42,20.73-1.23,.04,1.08,.07,2.11,.09,2.99,.04,1.44,.08,2.85,.13,4.18,.36,8.94,.97,15.88,2.77,20.75,.1,.27,.23,.67,.37,1.11,.9,2.75,2.4,7.36,6.22,10.97,3.96,3.74,8.75,4.88,13.13,4.88,2.2,0,4.3-.29,6.14-.68,6.56-1.41,14.01-3.55,19.4-11.22,5.1-7.26,7.57-18.19,8.02-35.41,.06-.49,.11-.95,.16-1.4l.11-.91,1.2,.11,.31,.02c6.68,.3,14.85-1.11,19.87-3.44,3.97-1.84,16.67-8.55,13.68-17.61"/>
    <path class="cls-2" d="M173.44,119.18c-19.87,4.1-21.24-2.63-21.24-2.63,20.98-31.13,29.75-70.65,22.18-80.32-20.65-26.38-56.39-13.91-56.99-13.58l-.19,.03c-3.93-.82-8.32-1.3-13.26-1.38-8.99-.15-15.81,2.36-20.99,6.28,0,0-63.76-26.27-60.8,33.04,.63,12.62,18.08,95.46,38.9,70.44,7.61-9.15,14.96-16.89,14.96-16.89,3.65,2.43,8.02,3.66,12.6,3.22l.36-.3c-.11,1.14-.06,2.25,.14,3.56-5.36,5.99-3.79,7.04-14.51,9.25-10.85,2.24-4.48,6.22-.31,7.26,5.04,1.26,16.71,3.05,24.6-7.99l-.31,1.26c2.1,1.68,3.58,10.95,3.33,19.35-.25,8.4-.41,14.16,1.24,18.67,1.66,4.5,3.31,14.64,17.4,11.62,11.78-2.52,17.88-9.06,18.73-19.97,.6-7.75,1.97-6.61,2.05-13.54l1.09-3.28c1.26-10.51,.2-13.9,7.45-12.33l1.76,.15c5.34,.24,12.33-.86,16.43-2.77,8.83-4.1,14.07-10.94,5.36-9.14h0"/>
    <path class="cls-1" d="M86.69,66.27c-1.79-.25-3.41-.02-4.23,.6-.46,.35-.6,.75-.64,1.03-.1,.74,.41,1.55,.73,1.98,.9,1.19,2.21,2.01,3.51,2.19,.19,.03,.38,.04,.56,.04,2.17,0,4.14-1.69,4.31-2.93,.22-1.56-2.05-2.6-4.25-2.91m59.32,.05c-.17-1.22-2.35-1.57-4.41-1.28-2.06,.29-4.06,1.22-3.9,2.44,.13,.95,1.86,2.58,3.89,2.58,.17,0,.35-.01,.52-.04,1.36-.19,2.36-1.05,2.83-1.55,.72-.76,1.14-1.6,1.06-2.15"/>
    <path class="cls-1" d="M180.05,118.72c-.76-2.29-3.2-3.03-7.25-2.19-12.03,2.48-16.34,.76-17.75-.28,9.35-14.25,17.04-31.47,21.19-47.53,1.97-7.61,3.05-14.68,3.14-20.44,.1-6.32-.98-10.97-3.2-13.81-8.95-11.44-22.1-17.58-38.01-17.75-10.94-.12-20.18,2.68-21.97,3.46-3.77-.94-7.89-1.51-12.36-1.59-8.21-.13-15.31,1.83-21.18,5.84-2.55-.95-9.15-3.21-17.22-4.51-13.95-2.25-25.03-.54-32.94,5.06-9.44,6.69-13.79,18.64-12.95,35.52,.28,5.68,3.52,23.15,8.63,39.89,6.72,22.03,14.03,34.49,21.72,37.06,.9,.3,1.94,.51,3.08,.51,2.81,0,6.24-1.26,9.82-5.57,4.36-5.24,8.88-10.34,13.54-15.32,3.02,1.62,6.34,2.53,9.74,2.62,0,.09,.02,.18,.02,.27-.58,.7-1.16,1.4-1.72,2.12-2.35,2.99-2.84,3.61-10.42,5.17-2.15,.44-7.88,1.62-7.96,5.64-.09,4.38,6.77,6.22,7.55,6.42,2.72,.68,5.34,1.02,7.85,1.02,6.08,0,11.44-2,15.71-5.87-.13,15.63,.52,31.02,2.4,35.71,1.54,3.84,5.29,13.23,17.15,13.23,1.74,0,3.65-.2,5.76-.65,12.38-2.65,17.75-8.12,19.83-20.18,1.11-6.44,3.02-21.83,3.92-30.09,1.89,.59,4.33,.86,6.97,.86,5.5,0,11.85-1.17,15.83-3.02,4.47-2.08,12.54-7.17,11.08-11.6m-29.47-55.78c-.04,2.44-.38,4.65-.73,6.96-.38,2.48-.78,5.05-.88,8.17-.1,3.03,.28,6.19,.65,9.24,.74,6.16,1.5,12.5-1.44,18.76-.49-.87-.92-1.76-1.3-2.68-.37-.89-1.16-2.31-2.26-4.28-4.28-7.67-14.29-25.62-9.16-32.95,1.53-2.18,5.4-4.42,15.13-3.22h0Zm-11.79-41.28c14.25,.31,25.53,5.65,33.51,15.85,6.12,7.82-.62,43.43-20.14,74.15-.2-.25-.39-.5-.59-.75l-.25-.31c5.04-8.33,4.06-16.57,3.18-23.88-.36-3-.7-5.83-.61-8.49,.09-2.82,.46-5.24,.82-7.58,.44-2.88,.89-5.86,.77-9.38,.09-.37,.13-.8,.08-1.32-.32-3.37-4.17-13.46-12.01-22.59-4.29-4.99-10.55-10.58-19.09-14.35,3.67-.76,8.7-1.47,14.33-1.35M59.02,129.24c-3.94,4.74-6.66,3.83-7.56,3.53-5.83-1.95-12.6-14.27-18.57-33.83-5.16-16.92-8.18-33.93-8.42-38.7-.75-15.09,2.9-25.6,10.87-31.25,12.97-9.19,34.28-3.69,42.85-.9-.12,.12-.25,.24-.37,.36-14.06,14.19-13.72,38.45-13.69,39.93,0,.57,.05,1.38,.11,2.5,.24,4.08,.69,11.67-.51,20.27-1.12,7.99,1.35,15.81,6.76,21.45,.56,.58,1.14,1.13,1.75,1.65-2.41,2.58-7.64,8.28-13.21,14.98m15.02-20.04c-4.36-4.55-6.34-10.88-5.43-17.37,1.27-9.08,.8-16.99,.55-21.24-.04-.59-.07-1.12-.08-1.53,2.05-1.82,11.57-6.92,18.35-5.36,3.1,.71,4.98,2.82,5.77,6.44,4.06,18.78,.54,26.6-2.29,32.89-.58,1.3-1.13,2.52-1.6,3.79l-.36,.98c-.92,2.48-1.78,4.78-2.32,6.97-4.64-.01-9.15-1.99-12.57-5.57h0Zm.71,25.32c-1.35-.34-2.57-.93-3.29-1.41,.6-.28,1.66-.66,3.5-1.04,8.91-1.83,10.29-3.13,13.29-6.95,.69-.88,1.47-1.87,2.55-3.07h0c1.61-1.81,2.35-1.5,3.68-.94,1.08,.45,2.14,1.81,2.57,3.3,.2,.71,.43,2.04-.31,3.09-6.28,8.79-15.43,8.68-22,7.03m46.64,43.4c-10.9,2.34-14.76-3.23-17.31-9.59-1.64-4.11-2.45-22.62-1.88-43.06,0-.27-.03-.53-.11-.78-.07-.49-.17-.97-.3-1.44-.85-2.97-2.93-5.46-5.41-6.49-.99-.41-2.8-1.16-4.98-.6,.47-1.92,1.27-4.08,2.15-6.42l.37-.99c.41-1.11,.93-2.26,1.48-3.48,2.96-6.58,7.02-15.59,2.62-35.95-1.65-7.63-7.16-11.35-15.5-10.49-5,.52-9.58,2.54-11.87,3.69-.49,.25-.94,.49-1.36,.72,.64-7.68,3.05-22.04,12.05-31.13,5.67-5.72,13.23-8.54,22.43-8.39,18.13,.3,29.76,9.6,36.33,17.36,5.66,6.68,8.72,13.41,9.94,17.05-9.19-.93-15.44,.88-18.61,5.41-6.89,9.85,3.77,28.98,8.9,38.17,.94,1.68,1.75,3.14,2.01,3.76,1.67,4.05,3.83,6.75,5.41,8.72,.48,.6,.95,1.19,1.31,1.7-2.78,.8-7.78,2.66-7.33,11.92-.37,4.65-2.98,26.42-4.31,34.12-1.75,10.16-5.49,13.95-16.01,16.2h0Zm45.51-52.08c-2.85,1.32-7.61,2.31-12.13,2.53-5,.23-7.54-.56-8.14-1.05-.28-5.78,1.87-6.38,4.14-7.02,.36-.1,.71-.2,1.04-.32,.21,.17,.44,.34,.69,.51,4.02,2.65,11.18,2.94,21.3,.85l.11-.02c-1.36,1.28-3.7,2.99-7.01,4.52"/>
  </g>
</svg>