<?xml version="1.0" encoding="UTF-8"?>
<svg id="Capa_1" data-name="Capa 1" xmlns="http://www.w3.org/2000/svg" viewBox="0 0 200 200">
  <defs>
    <style>
      .cls-1 {
        fill: #f60;
      }
    </style>
  </defs>
  <path class="cls-1" d="M191.98,80.04h-64c-4.4,.03-7.99-3.52-8.02-7.92,0-.03,0-.07,0-.1V8.02c0-4.4-3.57-7.97-7.97-7.97-.02,0-.03,0-.05,0h-23.96c-4.4-.03-7.99,3.52-8.02,7.92,0,.02,0,.03,0,.05v64c.03,4.4-3.52,7.99-7.92,8.02-.03,0-.07,0-.1,0h-23.96c-4.4,.03-7.99-3.52-8.02-7.92,0-.03,0-.07,0-.1V8.02C40,3.62,36.46,.03,32.06,0c-.03,0-.07,0-.1,0H7.95C3.55,0-.02,3.57-.02,7.97c0,.02,0,.03,0,.05V192.05c-.03,4.4,3.52,7.99,7.92,8.02,.03,0,.07,0,.1,0H191.98c4.4,.03,7.99-3.52,8.02-7.92,0-.03,0-.07,0-.1V88.21c.11-4.4-3.37-8.06-7.77-8.17-.08,0-.17,0-.25,0Zm-32.17,67.96c.03,6.62-5.31,12-11.93,12.03-.02,0-.03,0-.05,0h-16.04c-6.62,0-11.98-5.36-11.98-11.98,0-.02,0-.03,0-.05v-15.99c-.03-6.62,5.31-12,11.93-12.03,.02,0,.03,0,.05,0h16.04c6.62,0,11.98,5.36,11.98,11.98,0,.02,0,.03,0,.05v15.99Z"/>
</svg>