<?xml version="1.0" encoding="utf-8"?>
<!-- Generator: Adobe Illustrator 26.5.0, SVG Export Plug-In . SVG Version: 6.00 Build 0)  -->
<svg version="1.1" xmlns="http://www.w3.org/2000/svg" xmlns:xlink="http://www.w3.org/1999/xlink" x="0px" y="0px"
	 viewBox="0 0 200 200" style="enable-background:new 0 0 200 200;" xml:space="preserve">
<style type="text/css">
	.st0{fill:#FFFFFF;}
</style>
<g id="Capa_2">
	<rect width="200" height="200"/>
</g>
<g id="Capa_1">
	<path class="st0" d="M150.3,138h24.8V78.4l-28-28l-17.6,17.6l20.7,20.7V138L150.3,138L150.3,138z M175.2,150.4H88.6l-20.7-20.7
		l8.8-8.8L93.8,138H129l-34.7-34.7l8.8-8.8l34.6,34.7V93.9l-17-17l8.7-8.7L86.5,25H0l24.8,24.8v0.1h51.4l18.2,18.2L67.7,94.5
		L49.6,76.3V62.2H24.8v24.4l43,43l-17.5,17.5l28,28H200L175.2,150.4L175.2,150.4L175.2,150.4z"/>
</g>
</svg>
