<?xml version="1.0" encoding="UTF-8"?>
<svg id="Capa_1" data-name="Capa 1" xmlns="http://www.w3.org/2000/svg" viewBox="0 0 615.63 561.65">
  <defs>
    <style>
      .cls-1 {
        fill: #a5c73d;
      }

      .cls-2 {
        fill: none;
      }
    </style>
  </defs>
  <path class="cls-1" d="M24.57,299.79c16.65-16.05,32.84-32.61,50.13-47.93,8.97-7.95,12.67-16.28,12.41-28.27-.52-23.14,.57-46.32,1.03-69.48,.06-3.11-.71-7.33,4.37-6.79,7.66,.82,8.37-4.37,9.2-9.69,1.01-6.53-.37-12.33-7.13-14.68-5.11-1.78-10.73-2.04-16.04-3.3-6.03-1.43-12.24-2.6-17.9-5-9.06-3.83-11.26-10.72-5.48-18.57,4.79-6.52,10.91-12.12,16.8-17.75,4.84-4.63,11.23-8.31,8.76-16.52-1.8-5.99-8.63-8.85-18.3-8.19-5.96,.41-12.75,1.88-16.02-4.69-3.59-7.23,2.06-12.23,6.45-16.85C74.59,9.17,117.9,3.56,144.81,20.32c2.55,1.59,5.11,5.15,5.24,7.92,.08,1.7-4.17,4.49-6.92,5.28-4.98,1.44-10.47,1.17-15.39,2.72-3.97,1.26-7.42,4.15-11.09,6.32,2.38,3.48,4.23,7.55,7.28,10.27,3.47,3.08,8.49,4.42,11.98,7.48,4.18,3.68,8.41,7.89,10.89,12.76,3.4,6.67,.68,13.45-6.44,16.85-6.23,2.97-13.28,4.2-19.6,7.01-3.03,1.35-6.61,4.21-7.32,7.05-.45,1.77,3.54,5.59,6.3,7.09,18.19,9.89,19.11,13.67,6.57,30.12-1.18,1.55-2.29,3.15-3.93,5.42,3.11,.71,5.6,1.27,8.82,2v45.75c.57,.34,1.14,.67,1.71,1.01,58.15-55.94,116.29-111.88,175-168.35,94.77,91.23,189.02,181.97,283.27,272.7-.23,.67-.46,1.33-.69,2-7.07,0-14.14,0-21.21,0-10.71,0-21.43,.19-32.13-.08-4.99-.12-7.04,1.27-7.03,6.68,.15,69.75,.16,139.49-.02,209.24-.02,5.94,2.35,6.98,7.54,6.94,23.41-.2,46.83,.08,70.24-.2,5.85-.07,8.04,1.64,7.7,7.59-.43,7.45-.38,14.95,0,22.41,.27,5.47-1.51,7.45-7.18,7.35-17.68-.31-35.37-.12-53.06-.12-181.34,0-362.69,0-544.03,.01q-11.2,0-11.21-11.32c0-6.23,.3-12.47-.08-18.68-.34-5.59,1.72-7.29,7.28-7.23,23.41,.26,46.83-.09,70.24,.24,6.29,.09,7.98-1.95,7.97-8.08-.18-69-.19-138,0-207,.02-6.39-2.16-7.99-8.19-7.87-17.35,.34-34.71,.12-52.07,.12-.23-.64-.47-1.29-.7-1.93Zm284.13,6.89c-8.4,7.06-15.82,12.89-22.78,19.22-16.2,14.73-32.57,29.31-48.11,44.72-8.61,8.53-16.42,18.09-23.29,28.08-10.93,15.89-16.22,33.41-11.49,53.02,7.11,29.49,31.16,45.55,60.26,39.34,15.59-3.33,27.92-12.74,38.99-23.75,1.84-1.83,2.44-4.89,3.61-7.39,.56,1.43,1.12,2.85,1.69,4.28,11.63,7.9,22.52,17.35,35.05,23.4,26.92,12.98,54.89,1.44,66.65-26.02,8.13-18.99,6.64-37.98-3.91-55.15-8.13-13.23-17.75-26-28.76-36.91-21.85-21.65-45.11-41.88-67.91-62.81Zm99.08-62.2c-.25-16.18-3.23-30.37-12.26-42.75-13.8-18.93-35.14-21.7-53.4-7.01-27.38,22.03-34.86,71.62-15.22,100.91,14.27,21.28,39.93,23.7,58.34,5.3,15.89-15.87,21.84-35.74,22.54-56.45Zm-108.95,5.44c-.63-15.97-6.61-36.16-22.94-51.95-20.24-19.57-45.97-15.76-60.16,8.51-16.75,28.65-8.7,75.33,16.67,96.67,18.9,15.9,41.61,12.96,55.5-7.4,8.13-11.91,11.08-25.39,10.93-45.83Zm-74.97,82.08c.02-26.79-15.79-52.98-37.15-63.65-23.19-11.59-46.22,1.08-47.87,26.91-1.83,28.63,10.17,50.9,34.23,65.96,22.64,14.17,44.86,3.79,49.97-22.44,.57-2.91,.72-5.91,.82-6.78Zm222.95-69.1c-6.32,2.03-13.1,3.18-18.87,6.23-22.94,12.15-37.82,41.2-35.05,67.09,2.24,20.95,18.07,34.26,36.28,30.48,33.13-6.88,57.49-51.56,45.25-83.01-4.85-12.47-14.64-19.53-27.6-20.79Z"/>
  <path class="cls-2" d="M308.71,306.69c22.8,20.93,46.06,41.16,67.91,62.81,11.01,10.91,20.63,23.68,28.76,36.91,10.55,17.17,12.04,36.16,3.91,55.15-11.76,27.47-39.73,39-66.65,26.02-12.53-6.04-23.42-15.49-35.05-23.4-.56-1.43-1.12-2.85-1.69-4.28-1.17,2.49-1.78,5.56-3.61,7.39-11.07,11.01-23.4,20.42-38.99,23.75-29.09,6.22-53.14-9.84-60.26-39.34-4.73-19.61,.56-37.13,11.49-53.02,6.87-9.99,14.69-19.55,23.29-28.08,15.54-15.4,31.91-29.99,48.11-44.72,6.97-6.33,14.38-12.17,22.78-19.22Zm-2.2,155.42c13.83-12.77,26.17-23.62,37.8-35.17,4.3-4.27,7.66-9.89,10.17-15.47,4.71-10.46,1.48-22.98-6.75-29.94-7.87-6.66-17.89-6.99-28.47-.55-3.94,2.4-7.46,5.5-10.97,8.12-3.95-3.13-7.44-6.38-11.38-8.92-15.4-9.89-32.11-3.07-36.48,14.73-2.34,9.51,.33,18.28,6.37,25.13,12.46,14.13,25.82,27.46,39.71,42.06Z"/>
  <path class="cls-2" d="M407.78,244.49c-.7,20.71-6.65,40.58-22.54,56.45-18.41,18.39-44.07,15.98-58.34-5.3-19.64-29.28-12.16-78.88,15.22-100.91,18.26-14.69,39.6-11.92,53.4,7.01,9.03,12.38,12.01,26.57,12.26,42.75Z"/>
  <path class="cls-2" d="M298.83,249.93c.15,20.43-2.81,33.91-10.93,45.83-13.89,20.35-36.6,23.29-55.5,7.4-25.37-21.33-33.42-68.02-16.67-96.67,14.19-24.27,39.92-28.09,60.16-8.51,16.34,15.8,22.31,35.98,22.94,51.95Z"/>
  <path class="cls-2" d="M223.86,332.01c-.1,.87-.25,3.86-.82,6.78-5.11,26.23-27.33,36.6-49.97,22.44-24.06-15.06-36.06-37.32-34.23-65.96,1.65-25.82,24.68-38.49,47.87-26.91,21.36,10.67,37.17,36.86,37.15,63.65Z"/>
  <path class="cls-2" d="M446.81,262.91c12.96,1.26,22.75,8.33,27.6,20.79,12.23,31.44-12.13,76.13-45.25,83.01-18.2,3.78-34.04-9.53-36.28-30.48-2.76-25.89,12.12-54.94,35.05-67.09,5.77-3.06,12.55-4.21,18.87-6.23Z"/>
  <path class="cls-1" d="M306.51,462.11c-13.89-14.6-27.25-27.93-39.71-42.06-6.05-6.86-8.71-15.63-6.37-25.13,4.37-17.79,21.08-24.62,36.48-14.73,3.95,2.54,7.43,5.79,11.38,8.92,3.51-2.63,7.03-5.72,10.97-8.12,10.58-6.44,20.6-6.11,28.47,.55,8.23,6.96,11.46,19.48,6.75,29.94-2.51,5.58-5.87,11.2-10.17,15.47-11.63,11.56-23.96,22.4-37.8,35.17Z"/>
</svg>