<svg width="100%" height="auto" viewBox="0 0 510 233" fill="none" xmlns="http://www.w3.org/2000/svg">
<g clip-path="url(#clip0_1072_1917)">
<path d="M192.469 75.5495C196.175 71.9674 199.778 68.2722 203.625 64.8504C205.62 63.0751 206.444 61.2181 206.384 58.5378C206.268 53.3721 206.51 48.2001 206.613 43.0281C206.626 42.3337 206.453 41.391 207.584 41.5136C209.288 41.6958 209.448 40.5395 209.63 39.3518C209.855 37.8938 209.545 36.5992 208.045 36.0745C206.908 35.6786 205.658 35.6189 204.474 35.3392C203.133 35.0187 201.751 34.7579 200.489 34.2238C198.475 33.3691 197.983 31.8326 199.267 30.0792C200.335 28.6244 201.695 27.3738 203.004 26.117C204.082 25.0832 205.504 24.2631 204.956 22.4312C204.555 21.0926 203.036 20.4548 200.884 20.6025C199.559 20.6936 198.045 21.0235 197.319 19.5561C196.52 17.9411 197.776 16.8256 198.753 15.795C203.6 10.6764 213.238 9.42579 219.225 13.165C219.792 13.52 220.362 14.315 220.393 14.934C220.412 15.3142 219.466 15.9364 218.855 16.1123C217.746 16.4328 216.525 16.3731 215.431 16.7219C214.548 17.0015 213.78 17.6488 212.963 18.1327C213.492 18.9088 213.903 19.8169 214.582 20.4234C215.353 21.1115 216.471 21.41 217.248 22.095C218.179 22.9151 219.121 23.8577 219.673 24.9418C220.431 26.4312 219.823 27.9457 218.241 28.703C216.857 29.366 215.287 29.6393 213.878 30.2678C213.204 30.5694 212.408 31.2073 212.249 31.842C212.148 32.2379 213.038 33.0894 213.652 33.4225C217.699 35.6283 217.906 36.4735 215.115 40.1467C214.852 40.4924 214.607 40.8506 214.241 41.3565C214.933 41.5136 215.488 41.6393 216.205 41.8026V52.0147C216.333 52.0901 216.459 52.1655 216.587 52.2378C229.528 39.7508 242.465 27.2639 255.531 14.6575C276.62 35.0219 297.596 55.2762 318.568 75.5306C318.518 75.6783 318.465 75.8291 318.415 75.9768C316.842 75.9768 315.27 75.9768 313.694 75.9768C311.31 75.9768 308.926 76.0177 306.542 75.958C305.43 75.9297 304.976 76.2408 304.976 77.4505C305.007 93.0199 305.013 108.589 304.973 124.156C304.97 125.482 305.496 125.714 306.652 125.705C311.861 125.658 317.074 125.724 322.283 125.661C323.583 125.645 324.072 126.028 323.997 127.357C323.903 129.02 323.912 130.694 323.997 132.36C324.056 133.582 323.659 134.022 322.399 134C318.465 133.931 314.527 133.972 310.593 133.972C270.239 133.972 229.882 133.972 189.528 133.972C187.866 133.972 187.034 133.129 187.034 131.442C187.034 130.053 187.1 128.658 187.016 127.273C186.941 126.025 187.398 125.645 188.635 125.658C193.845 125.717 199.057 125.636 204.267 125.711C205.667 125.73 206.043 125.274 206.04 123.907C205.999 108.504 205.996 93.1047 206.04 77.7019C206.043 76.2753 205.561 75.9203 204.22 75.9454C200.357 76.0208 196.495 75.9737 192.632 75.9737C192.579 75.8291 192.529 75.6877 192.476 75.5432L192.469 75.5495ZM255.701 77.0891C253.83 78.6634 252.179 79.9674 250.632 81.3782C247.026 84.6649 243.383 87.9202 239.925 91.3608C238.011 93.265 236.272 95.3985 234.74 97.6295C232.306 101.177 231.129 105.086 232.184 109.463C233.766 116.046 239.12 119.631 245.592 118.242C249.063 117.497 251.807 115.398 254.269 112.941C254.679 112.533 254.811 111.848 255.074 111.292C255.199 111.609 255.325 111.929 255.45 112.247C258.037 114.013 260.462 116.121 263.25 117.469C269.239 120.366 275.464 117.79 278.083 111.659C279.893 107.42 279.561 103.182 277.215 99.3482C275.408 96.3946 273.265 93.5447 270.815 91.1095C265.953 86.2768 260.775 81.7615 255.704 77.0891H255.701ZM277.748 63.2071C277.691 59.5936 277.03 56.4263 275.019 53.6643C271.946 49.4381 267.197 48.8191 263.134 52.0995C257.041 57.017 255.378 68.0868 259.748 74.6225C262.924 79.3735 268.635 79.9108 272.729 75.8071C276.266 72.2628 277.591 67.8292 277.744 63.2071H277.748ZM253.501 64.4199C253.36 60.8536 252.032 56.3509 248.395 52.8222C243.891 48.4546 238.164 49.303 235.007 54.7232C231.279 61.1175 233.071 71.5401 238.716 76.3005C242.923 79.848 247.976 79.1913 251.067 74.6508C252.875 71.9926 253.533 68.9824 253.501 64.4199ZM236.817 82.7419C236.824 76.7624 233.303 70.9148 228.55 68.533C223.388 65.947 218.263 68.775 217.897 74.5377C217.489 80.9289 220.161 85.8998 225.515 89.2619C230.552 92.4229 235.499 90.1071 236.636 84.2533C236.761 83.6029 236.795 82.9336 236.817 82.7419ZM286.431 67.317C285.025 67.7695 283.515 68.0271 282.23 68.709C277.127 71.4207 273.816 77.9061 274.43 83.6845C274.928 88.3601 278.452 91.3326 282.503 90.4873C289.874 88.9508 295.296 78.9776 292.574 71.958C291.493 69.174 289.316 67.5998 286.431 67.317Z" fill="#A5C73D"/>
<path d="M255.209 111.782C252.117 108.523 249.144 105.548 246.372 102.393C245.025 100.863 244.433 98.9052 244.953 96.7811C245.927 92.8094 249.642 91.2854 253.069 93.4944C253.946 94.06 254.723 94.7858 255.603 95.4865C256.383 94.8989 257.166 94.2077 258.044 93.6735C260.399 92.2344 262.627 92.3098 264.381 93.796C266.21 95.3483 266.931 98.1448 265.881 100.479C265.324 101.724 264.575 102.977 263.616 103.933C261.029 106.512 258.285 108.932 255.206 111.785L255.209 111.782Z" fill="#1D1D1B"/>
</g>
<path d="M15.696 205.208C13.92 205.208 12.36 205.064 11.016 204.776C9.672 204.488 8.496 203.792 7.488 202.688C6.528 201.584 6.048 199.88 6.048 197.576C6.048 194.36 7.008 190.04 8.928 184.616C10.896 179.192 13.464 173.744 16.632 168.272C14.232 168.416 12.336 168.776 10.944 169.352C9.552 169.928 8.64 170.816 8.208 172.016C8.4 172.016 8.592 172.256 8.784 172.736C9.024 173.216 9.144 173.72 9.144 174.248C9.144 175.112 8.76 175.808 7.992 176.336C7.224 176.816 6.264 177.056 5.112 177.056C3.768 177.056 2.688 176.696 1.872 175.976C1.056 175.256 0.648 174.224 0.648 172.88C0.648 171.248 1.272 169.76 2.52 168.416C3.816 167.072 5.592 166.016 7.848 165.248C10.104 164.432 12.6 164.024 15.336 164.024C16.344 164.024 17.592 164.096 19.08 164.24C23.016 158 27.168 152.912 31.536 148.976C35.952 144.992 40.152 143 44.136 143C46.44 143 48.336 143.336 49.824 144.008L38.52 197H28.152L33.696 170.864C31.92 170.048 30.288 169.448 28.8 169.064C27.312 168.68 25.728 168.416 24.048 168.272C21.312 174.176 19.056 180.224 17.28 186.416C15.552 192.56 14.688 197.48 14.688 201.176C14.688 203 15.024 204.344 15.696 205.208ZM38.52 148.112C36.456 149.216 34.296 151.28 32.04 154.304C29.832 157.28 27.672 160.904 25.56 165.176C29.016 165.848 31.944 166.688 34.344 167.696L38.52 148.112ZM56.7338 197.432C53.9978 197.432 51.7178 196.496 49.8938 194.624C48.0697 192.752 47.1577 189.824 47.1577 185.84C47.1577 182.288 47.8538 178.568 49.2458 174.68C50.6858 170.744 52.7978 167.432 55.5818 164.744C58.4138 162.008 61.7738 160.64 65.6618 160.64C67.6298 160.64 69.0938 160.976 70.0538 161.648C71.0138 162.32 71.4938 163.208 71.4938 164.312V164.6L75.0218 148.04L85.6778 146.6L77.3978 185.48C77.2058 186.2 77.1098 186.968 77.1098 187.784C77.1098 188.744 77.3258 189.44 77.7578 189.872C78.2378 190.256 79.0058 190.448 80.0618 190.448C81.4058 190.448 82.5578 189.872 83.5178 188.72C84.5258 187.568 85.3178 186.032 85.8938 184.112H88.9178C85.9898 192.704 81.1658 197 74.4458 197C72.4778 197 70.8698 196.472 69.6218 195.416C68.4218 194.36 67.6778 192.824 67.3898 190.808C66.1418 192.728 64.6298 194.312 62.8538 195.56C61.1258 196.808 59.0858 197.432 56.7338 197.432ZM61.4138 190.448C62.5658 190.448 63.7178 189.92 64.8698 188.864C66.0698 187.808 66.8858 186.344 67.3178 184.472V184.112L70.8458 167.624C70.4138 165.944 69.4298 165.104 67.8938 165.104C65.9738 165.104 64.2458 166.232 62.7098 168.488C61.1738 170.696 59.9738 173.384 59.1098 176.552C58.2458 179.672 57.8138 182.432 57.8138 184.832C57.8138 187.232 58.1498 188.768 58.8218 189.44C59.5418 190.112 60.4058 190.448 61.4138 190.448ZM96.4339 197.288C92.8819 197.288 90.0739 196.376 88.0099 194.552C85.9459 192.728 84.9139 189.848 84.9139 185.912C84.9139 182.648 85.5859 179.024 86.9299 175.04C88.2739 171.056 90.4339 167.624 93.4099 164.744C96.3859 161.816 100.13 160.352 104.642 160.352C110.786 160.352 113.858 164.192 113.858 171.872V171.944C114.002 171.992 114.266 172.016 114.65 172.016C116.234 172.016 118.058 171.608 120.122 170.792C122.186 169.928 124.058 168.896 125.738 167.696L126.386 169.64C124.994 171.128 123.17 172.4 120.914 173.456C118.706 174.464 116.282 175.184 113.642 175.616C113.258 179.984 112.274 183.8 110.69 187.064C109.106 190.328 107.066 192.848 104.57 194.624C102.074 196.4 99.3619 197.288 96.4339 197.288ZM99.3139 190.808C100.466 190.808 101.618 190.16 102.77 188.864C103.922 187.52 104.93 185.72 105.794 183.464C106.658 181.16 107.282 178.616 107.666 175.832C106.37 175.544 105.722 174.536 105.722 172.808C105.722 170.84 106.466 169.544 107.954 168.92C107.858 167.336 107.618 166.256 107.234 165.68C106.85 165.056 106.178 164.744 105.218 164.744C103.634 164.744 102.098 165.896 100.61 168.2C99.1219 170.504 97.9219 173.264 97.0099 176.48C96.0979 179.696 95.6419 182.528 95.6419 184.976C95.6419 187.28 95.9059 188.84 96.4339 189.656C96.9619 190.424 97.9219 190.808 99.3139 190.808ZM123.035 158.336H133.403L132.251 163.736C134.651 161.672 137.459 160.64 140.675 160.64C143.363 160.64 145.499 161.528 147.083 163.304C148.667 165.08 149.459 167.984 149.459 172.016C149.459 175.808 148.907 179.648 147.803 183.536C146.699 187.376 144.827 190.664 142.187 193.4C139.547 196.088 136.067 197.432 131.747 197.432C128.675 197.432 126.635 196.568 125.627 194.84L121.883 212.408L111.01 215L123.035 158.336ZM129.515 191.168C131.819 191.168 133.715 190.088 135.203 187.928C136.739 185.768 137.843 183.2 138.515 180.224C139.235 177.2 139.595 174.392 139.595 171.8C139.595 167.816 138.395 165.824 135.995 165.824C135.131 165.824 134.243 166.136 133.331 166.76C132.467 167.384 131.699 168.248 131.027 169.352L126.779 189.512C127.163 190.616 128.075 191.168 129.515 191.168ZM158.37 197.432C156.066 197.432 154.194 196.712 152.754 195.272C151.362 193.832 150.666 191.672 150.666 188.792C150.666 187.592 150.858 186.032 151.242 184.112L155.562 163.88H153.186L153.762 161H156.138L158.298 151.064L168.954 149.624L166.506 161H170.826L170.25 163.88H165.93L161.322 185.48C161.13 186.2 161.034 186.968 161.034 187.784C161.034 188.744 161.25 189.44 161.682 189.872C162.162 190.256 162.93 190.448 163.986 190.448C165.378 190.448 166.674 189.872 167.874 188.72C169.074 187.52 169.938 185.984 170.466 184.112H173.49C171.714 189.296 169.434 192.824 166.65 194.696C163.866 196.52 161.106 197.432 158.37 197.432ZM179.078 197.432C176.342 197.432 174.062 196.496 172.238 194.624C170.413 192.752 169.501 189.824 169.501 185.84C169.501 182.288 170.198 178.568 171.59 174.68C173.03 170.744 175.142 167.432 177.926 164.744C180.758 162.008 184.118 160.64 188.006 160.64C189.974 160.64 191.438 160.976 192.398 161.648C193.358 162.32 193.838 163.208 193.838 164.312V164.816L194.63 161H204.998L199.814 185.48C199.622 186.2 199.526 186.968 199.526 187.784C199.526 188.744 199.742 189.44 200.174 189.872C200.654 190.256 201.422 190.448 202.478 190.448C203.15 190.448 203.678 190.352 204.062 190.16C203.006 192.848 201.998 194.744 201.038 195.848C200.078 196.904 198.686 197.432 196.862 197.432C194.894 197.432 193.286 196.856 192.038 195.704C190.838 194.504 190.094 192.848 189.806 190.736C186.878 195.2 183.302 197.432 179.078 197.432ZM183.758 190.448C184.958 190.448 186.134 189.896 187.286 188.792C188.486 187.64 189.302 186.08 189.734 184.112L193.19 167.84C193.19 167.216 192.95 166.616 192.47 166.04C191.99 165.416 191.246 165.104 190.238 165.104C188.318 165.104 186.59 166.232 185.054 168.488C183.518 170.696 182.318 173.384 181.454 176.552C180.59 179.672 180.158 182.432 180.158 184.832C180.158 187.232 180.494 188.768 181.166 189.44C181.886 190.112 182.75 190.448 183.758 190.448Z" fill="black"/>
<path d="M226.784 197.432C224.48 197.432 222.608 196.712 221.168 195.272C219.776 193.832 219.08 191.672 219.08 188.792C219.08 187.592 219.272 186.032 219.656 184.112L224.552 161H234.92L229.736 185.48C229.592 186.2 229.52 186.872 229.52 187.496C229.52 189.464 230.24 190.448 231.68 190.448C233.024 190.448 234.176 189.896 235.136 188.792C236.096 187.64 236.864 186.08 237.44 184.112L242.336 161H252.704L247.52 185.48C247.328 186.2 247.232 186.968 247.232 187.784C247.232 188.744 247.448 189.44 247.88 189.872C248.36 190.256 249.128 190.448 250.184 190.448C251.528 190.448 252.68 189.872 253.64 188.72C254.648 187.568 255.44 186.032 256.016 184.112H259.04C257.264 189.296 255.056 192.824 252.416 194.696C249.824 196.52 247.208 197.432 244.568 197.432C242.504 197.432 240.848 196.856 239.6 195.704C238.4 194.552 237.68 192.848 237.44 190.592C235.808 193.232 234.08 195.032 232.256 195.992C230.48 196.952 228.656 197.432 226.784 197.432ZM280.776 197.432C278.232 197.432 276.384 196.664 275.232 195.128C274.08 193.592 273.504 191.648 273.504 189.296C273.504 188.288 273.624 187.16 273.864 185.912C274.104 184.616 274.344 183.368 274.584 182.168C274.872 180.968 275.064 180.2 275.16 179.864C275.544 178.184 275.904 176.528 276.24 174.896C276.576 173.264 276.744 171.944 276.744 170.936C276.744 168.488 275.88 167.264 274.152 167.264C272.904 167.264 271.8 167.888 270.84 169.136C269.88 170.336 269.112 171.92 268.536 173.888L263.64 197H253.272L260.904 161H271.272L270.48 164.744C272.88 162.056 275.688 160.712 278.904 160.712C281.352 160.712 283.296 161.384 284.736 162.728C286.176 164.072 286.896 166.112 286.896 168.848C286.896 170.24 286.728 171.8 286.392 173.528C286.056 175.208 285.576 177.272 284.952 179.72C284.568 181.208 284.208 182.672 283.872 184.112C283.584 185.504 283.44 186.608 283.44 187.424C283.44 188.384 283.656 189.128 284.088 189.656C284.52 190.184 285.264 190.448 286.32 190.448C287.472 190.448 288.264 190.304 288.696 190.016C288.408 192.464 287.52 194.312 286.032 195.56C284.592 196.808 282.84 197.432 280.776 197.432ZM309.785 158.336H320.153L319.001 163.736C321.401 161.672 324.209 160.64 327.425 160.64C330.113 160.64 332.249 161.528 333.833 163.304C335.417 165.08 336.209 167.984 336.209 172.016C336.209 175.808 335.657 179.648 334.553 183.536C333.449 187.376 331.577 190.664 328.937 193.4C326.297 196.088 322.817 197.432 318.497 197.432C315.425 197.432 313.385 196.568 312.377 194.84L308.633 212.408L297.76 215L309.785 158.336ZM316.265 191.168C318.569 191.168 320.465 190.088 321.953 187.928C323.489 185.768 324.593 183.2 325.265 180.224C325.985 177.2 326.345 174.392 326.345 171.8C326.345 167.816 325.145 165.824 322.745 165.824C321.881 165.824 320.993 166.136 320.081 166.76C319.217 167.384 318.449 168.248 317.777 169.352L313.529 189.512C313.913 190.616 314.825 191.168 316.265 191.168ZM348.288 197.432C344.736 197.432 341.976 196.52 340.008 194.696C338.04 192.824 337.056 189.92 337.056 185.984C337.056 182.672 337.704 179.024 339 175.04C340.296 171.056 342.408 167.624 345.336 164.744C348.264 161.816 351.984 160.352 356.496 160.352C361.776 160.352 364.416 162.656 364.416 167.264C364.416 169.952 363.648 172.424 362.112 174.68C360.576 176.936 358.536 178.76 355.992 180.152C353.448 181.496 350.736 182.264 347.856 182.456C347.76 183.896 347.712 184.856 347.712 185.336C347.712 187.688 348.12 189.296 348.936 190.16C349.752 190.976 351.072 191.384 352.896 191.384C355.488 191.384 357.696 190.784 359.52 189.584C361.392 188.384 363.432 186.56 365.64 184.112H368.088C362.76 192.992 356.16 197.432 348.288 197.432ZM348.432 179C350.208 178.904 351.888 178.28 353.472 177.128C355.104 175.976 356.4 174.512 357.36 172.736C358.368 170.96 358.872 169.088 358.872 167.12C358.872 165.152 358.272 164.168 357.072 164.168C355.344 164.168 353.64 165.68 351.96 168.704C350.328 171.728 349.152 175.16 348.432 179ZM372.753 197.432C370.449 197.432 368.577 196.712 367.137 195.272C365.745 193.832 365.049 191.672 365.049 188.792C365.049 187.592 365.241 186.032 365.625 184.112L373.329 148.04L383.985 146.6L375.705 185.48C375.513 186.2 375.417 186.968 375.417 187.784C375.417 188.744 375.633 189.44 376.065 189.872C376.545 190.256 377.313 190.448 378.369 190.448C379.761 190.448 381.057 189.872 382.257 188.72C383.457 187.52 384.321 185.984 384.849 184.112H387.873C386.097 189.296 383.817 192.824 381.033 194.696C378.249 196.52 375.489 197.432 372.753 197.432ZM391.948 197.432C389.644 197.432 387.772 196.712 386.332 195.272C384.94 193.832 384.244 191.672 384.244 188.792C384.244 187.592 384.436 186.032 384.82 184.112L389.716 161H400.084L394.9 185.48C394.756 186.2 394.684 186.872 394.684 187.496C394.684 189.464 395.404 190.448 396.844 190.448C398.188 190.448 399.34 189.896 400.3 188.792C401.26 187.64 402.028 186.08 402.604 184.112L407.5 161H417.868L412.684 185.48C412.492 186.2 412.396 186.968 412.396 187.784C412.396 188.744 412.612 189.44 413.044 189.872C413.524 190.256 414.292 190.448 415.348 190.448C416.692 190.448 417.844 189.872 418.804 188.72C419.812 187.568 420.604 186.032 421.18 184.112H424.204C422.428 189.296 420.22 192.824 417.58 194.696C414.988 196.52 412.372 197.432 409.732 197.432C407.668 197.432 406.012 196.856 404.764 195.704C403.564 194.552 402.844 192.848 402.604 190.592C400.972 193.232 399.244 195.032 397.42 195.992C395.644 196.952 393.82 197.432 391.948 197.432ZM429.812 197.432C427.076 197.432 424.796 196.496 422.972 194.624C421.148 192.752 420.236 189.824 420.236 185.84C420.236 182.288 420.932 178.568 422.324 174.68C423.764 170.744 425.876 167.432 428.66 164.744C431.492 162.008 434.852 160.64 438.74 160.64C440.708 160.64 442.172 160.976 443.132 161.648C444.092 162.32 444.572 163.208 444.572 164.312V164.6L448.1 148.04L458.756 146.6L450.476 185.48C450.284 186.2 450.188 186.968 450.188 187.784C450.188 188.744 450.404 189.44 450.836 189.872C451.316 190.256 452.084 190.448 453.14 190.448C454.484 190.448 455.636 189.872 456.596 188.72C457.604 187.568 458.396 186.032 458.972 184.112H461.996C459.068 192.704 454.244 197 447.524 197C445.556 197 443.948 196.472 442.7 195.416C441.5 194.36 440.756 192.824 440.468 190.808C439.22 192.728 437.708 194.312 435.932 195.56C434.204 196.808 432.164 197.432 429.812 197.432ZM434.492 190.448C435.644 190.448 436.796 189.92 437.948 188.864C439.148 187.808 439.964 186.344 440.396 184.472V184.112L443.924 167.624C443.492 165.944 442.508 165.104 440.972 165.104C439.052 165.104 437.324 166.232 435.788 168.488C434.252 170.696 433.052 173.384 432.188 176.552C431.324 179.672 430.892 182.432 430.892 184.832C430.892 187.232 431.228 188.768 431.9 189.44C432.62 190.112 433.484 190.448 434.492 190.448ZM469.512 197.288C465.96 197.288 463.152 196.376 461.088 194.552C459.024 192.728 457.992 189.848 457.992 185.912C457.992 182.6 458.64 178.976 459.936 175.04C461.232 171.056 463.344 167.624 466.272 164.744C469.2 161.816 472.944 160.352 477.504 160.352C483.168 160.352 486.216 163.592 486.648 170.072C487.704 169.832 488.64 169.256 489.456 168.344C490.272 167.384 491.04 166.304 491.76 165.104H494.064C492.768 167.696 491.616 169.736 490.608 171.224C489.6 172.664 488.28 173.84 486.648 174.752C486.36 179.264 485.424 183.224 483.84 186.632C482.304 190.04 480.288 192.68 477.792 194.552C475.296 196.376 472.536 197.288 469.512 197.288ZM472.392 190.808C474.168 190.808 475.824 189.368 477.36 186.488C478.896 183.608 479.952 180.056 480.528 175.832C479.376 175.4 478.8 174.32 478.8 172.592C478.8 170.72 479.472 169.472 480.816 168.848C480.72 167.312 480.456 166.256 480.024 165.68C479.64 165.056 478.992 164.744 478.08 164.744C476.496 164.744 474.984 165.896 473.544 168.2C472.104 170.456 470.928 173.216 470.016 176.48C469.152 179.696 468.72 182.528 468.72 184.976C468.72 187.28 468.984 188.84 469.512 189.656C470.04 190.424 471 190.808 472.392 190.808Z" fill="#A5C73D" fill-opacity="0.7"/>
<defs>
<clipPath id="clip0_1072_1917">
<rect width="137" height="123" fill="white" transform="translate(187 11)"/>
</clipPath>
</defs>
</svg>
