<?xml version="1.0" encoding="UTF-8"?>
<svg id="Capa_1" data-name="Capa 1" xmlns="http://www.w3.org/2000/svg" xmlns:xlink="http://www.w3.org/1999/xlink" viewBox="0 0 233 34.06">
  <defs>
    <style>
      .cls-1 {
        fill: #27272a;
      }

      .cls-2 {
        clip-path: url(#clippath);
      }

      .cls-3 {
        fill: none;
      }
    </style>
    <clipPath id="clippath">
      <rect class="cls-3" x="172" y="7.03" width="54.67" height="20"/>
    </clipPath>
  </defs>
  <path class="cls-1" d="M11.6,23.3H5.94V5.85h5.83c1.71,0,3.18,.35,4.41,1.05,1.23,.69,2.17,1.69,2.82,2.99,.66,1.3,.99,2.85,.99,4.66s-.33,3.38-1,4.69c-.66,1.31-1.61,2.31-2.86,3.02-1.25,.7-2.76,1.05-4.53,1.05Zm-3.02-2.3h2.87c1.33,0,2.43-.25,3.32-.75,.88-.51,1.54-1.24,1.98-2.19,.44-.96,.66-2.13,.66-3.51s-.22-2.53-.66-3.49c-.43-.95-1.08-1.68-1.93-2.17-.86-.49-1.92-.74-3.2-.74h-3.03v12.85Zm20.12,2.57c-1.29,0-2.4-.28-3.33-.83-.93-.56-1.64-1.34-2.15-2.34-.5-1.01-.75-2.2-.75-3.55s.25-2.52,.75-3.55c.51-1.02,1.21-1.82,2.11-2.39,.91-.57,1.97-.86,3.19-.86,.74,0,1.45,.12,2.15,.37,.69,.24,1.32,.63,1.87,1.15,.55,.52,.99,1.2,1.3,2.04,.32,.83,.48,1.84,.48,3.03v.9h-10.41v-1.91h7.91c0-.67-.14-1.26-.41-1.78-.27-.52-.66-.93-1.15-1.24-.49-.3-1.06-.45-1.72-.45-.72,0-1.34,.18-1.88,.53-.53,.35-.94,.8-1.23,1.36-.28,.56-.43,1.16-.43,1.82v1.49c0,.88,.15,1.62,.46,2.23,.31,.61,.75,1.08,1.3,1.41,.56,.32,1.21,.48,1.95,.48,.48,0,.92-.07,1.32-.2,.4-.14,.74-.35,1.03-.63,.29-.28,.51-.62,.66-1.03l2.41,.43c-.19,.71-.54,1.33-1.04,1.87-.49,.53-1.12,.94-1.87,1.24-.74,.29-1.59,.43-2.55,.43Zm19.27-13.36l-4.75,13.09h-2.73l-4.76-13.09h2.74l3.32,10.07h.14l3.31-10.07h2.74Zm7.59,13.36c-1.29,0-2.4-.28-3.33-.83-.93-.56-1.64-1.34-2.15-2.34-.5-1.01-.75-2.2-.75-3.55s.25-2.52,.75-3.55c.51-1.02,1.21-1.82,2.11-2.39,.91-.57,1.97-.86,3.19-.86,.74,0,1.45,.12,2.15,.37,.69,.24,1.32,.63,1.87,1.15,.55,.52,.99,1.2,1.3,2.04,.32,.83,.48,1.84,.48,3.03v.9h-10.41v-1.91h7.91c0-.67-.14-1.26-.41-1.78-.27-.52-.66-.93-1.15-1.24-.49-.3-1.06-.45-1.72-.45-.72,0-1.34,.18-1.88,.53-.53,.35-.94,.8-1.23,1.36-.28,.56-.43,1.16-.43,1.82v1.49c0,.88,.15,1.62,.46,2.23,.31,.61,.75,1.08,1.3,1.41,.56,.32,1.21,.48,1.95,.48,.48,0,.92-.07,1.32-.2,.4-.14,.74-.35,1.03-.63,.29-.28,.51-.62,.66-1.03l2.41,.43c-.19,.71-.54,1.33-1.04,1.87-.49,.53-1.12,.94-1.87,1.24-.74,.29-1.59,.43-2.55,.43Zm10.99-17.72V23.3h-2.55V5.85h2.55Zm8.94,17.72c-1.23,0-2.3-.28-3.21-.84-.91-.56-1.62-1.35-2.13-2.36-.51-1.01-.76-2.19-.76-3.55s.25-2.55,.76-3.56c.51-1.02,1.22-1.81,2.13-2.37,.91-.56,1.99-.84,3.21-.84s2.3,.28,3.21,.84c.91,.56,1.62,1.35,2.13,2.37,.51,1.02,.76,2.2,.76,3.56s-.25,2.53-.76,3.55c-.51,1.01-1.22,1.8-2.13,2.36-.91,.56-1.99,.84-3.21,.84Zm0-2.14c.8,0,1.45-.21,1.98-.63,.52-.42,.91-.98,1.16-1.68,.26-.7,.38-1.47,.38-2.31s-.13-1.6-.38-2.3c-.25-.7-.64-1.27-1.16-1.7-.52-.43-1.18-.64-1.98-.64s-1.47,.21-1.99,.64c-.52,.43-.91,.99-1.17,1.7-.25,.7-.38,1.47-.38,2.3s.12,1.61,.38,2.31c.26,.7,.64,1.26,1.17,1.68,.53,.42,1.19,.63,1.99,.63Zm8.94,6.78V10.21h2.49v2.12h.21c.15-.27,.36-.59,.64-.95,.28-.36,.66-.67,1.16-.94,.49-.27,1.15-.41,1.96-.41,1.06,0,2,.27,2.83,.8,.83,.53,1.48,1.3,1.95,2.31,.48,1.01,.72,2.22,.72,3.63s-.24,2.63-.71,3.64c-.47,1.01-1.12,1.78-1.94,2.33-.82,.54-1.76,.81-2.82,.81-.8,0-1.45-.13-1.95-.4-.5-.27-.89-.58-1.18-.94-.28-.36-.5-.68-.66-.95h-.15v6.95h-2.55Zm2.5-11.45c0,.92,.13,1.73,.4,2.42,.27,.69,.65,1.24,1.16,1.63,.51,.39,1.12,.58,1.86,.58s1.4-.2,1.91-.61c.51-.41,.9-.96,1.16-1.66,.27-.7,.4-1.49,.4-2.36s-.13-1.64-.39-2.33c-.26-.69-.64-1.23-1.16-1.63-.51-.4-1.15-.6-1.92-.6s-1.36,.19-1.88,.57c-.51,.38-.89,.91-1.15,1.59-.26,.68-.39,1.48-.39,2.39Zm17.96,6.81c-1.29,0-2.4-.28-3.33-.83-.93-.56-1.64-1.34-2.15-2.34-.5-1.01-.75-2.2-.75-3.55s.25-2.52,.75-3.55c.51-1.02,1.21-1.82,2.11-2.39,.91-.57,1.97-.86,3.19-.86,.74,0,1.46,.12,2.15,.37,.69,.24,1.32,.63,1.87,1.15,.55,.52,.99,1.2,1.3,2.04,.32,.83,.48,1.84,.48,3.03v.9h-10.41v-1.91h7.91c0-.67-.14-1.26-.41-1.78-.27-.52-.66-.93-1.15-1.24-.49-.3-1.06-.45-1.72-.45-.72,0-1.34,.18-1.88,.53-.53,.35-.94,.8-1.23,1.36-.28,.56-.43,1.16-.43,1.82v1.49c0,.88,.15,1.62,.46,2.23,.31,.61,.75,1.08,1.3,1.41,.56,.32,1.21,.48,1.95,.48,.48,0,.92-.07,1.32-.2,.4-.14,.74-.35,1.03-.63,.29-.28,.51-.62,.67-1.03l2.41,.43c-.19,.71-.54,1.33-1.04,1.87-.49,.53-1.12,.94-1.87,1.24-.74,.29-1.59,.43-2.55,.43Zm13.34,0c-1.06,0-2-.27-2.83-.81-.82-.55-1.47-1.32-1.94-2.33-.47-1.01-.7-2.22-.7-3.64s.24-2.62,.71-3.63c.48-1.01,1.13-1.78,1.96-2.31,.83-.53,1.77-.8,2.82-.8,.81,0,1.46,.14,1.96,.41,.5,.27,.89,.58,1.16,.94,.28,.36,.49,.67,.65,.95h.15V5.85h2.55V23.3h-2.49v-2.04h-.21c-.15,.28-.38,.6-.67,.95-.28,.36-.68,.67-1.18,.94-.5,.27-1.15,.4-1.94,.4Zm.56-2.17c.73,0,1.35-.19,1.86-.58,.51-.39,.9-.93,1.16-1.63,.27-.69,.4-1.5,.4-2.42s-.13-1.7-.39-2.39c-.26-.68-.65-1.21-1.15-1.59s-1.13-.57-1.88-.57-1.41,.2-1.92,.6c-.51,.4-.9,.94-1.16,1.63-.25,.69-.38,1.46-.38,2.33s.13,1.66,.39,2.36c.26,.7,.65,1.25,1.16,1.66,.52,.4,1.15,.61,1.91,.61Zm16.12,1.92V5.85h2.55v6.49h.15c.15-.27,.36-.59,.64-.95,.28-.36,.67-.67,1.16-.94,.49-.27,1.15-.41,1.96-.41,1.06,0,2,.27,2.83,.8,.83,.53,1.48,1.3,1.95,2.31,.48,1.01,.72,2.22,.72,3.63s-.24,2.63-.71,3.64c-.47,1.01-1.12,1.78-1.94,2.33-.82,.54-1.76,.81-2.82,.81-.79,0-1.45-.13-1.95-.4-.5-.27-.89-.58-1.18-.94-.28-.36-.5-.68-.66-.95h-.21v2.04h-2.49Zm2.5-6.55c0,.92,.13,1.73,.4,2.42s.65,1.24,1.16,1.63c.51,.39,1.12,.58,1.86,.58s1.4-.2,1.91-.61c.51-.41,.9-.96,1.16-1.66,.27-.7,.4-1.49,.4-2.36s-.13-1.64-.39-2.33c-.26-.69-.64-1.23-1.16-1.63-.51-.4-1.15-.6-1.92-.6s-1.36,.19-1.88,.57c-.51,.38-.89,.91-1.15,1.59-.26,.68-.39,1.48-.39,2.39Zm13.49,11.45c-.38,0-.73-.03-1.04-.09-.31-.06-.54-.12-.7-.19l.61-2.09c.47,.12,.88,.18,1.24,.16,.36-.02,.69-.15,.96-.41,.28-.26,.53-.67,.75-1.25l.32-.87-4.79-13.26h2.73l3.32,10.16h.14l3.32-10.16h2.74l-5.4,14.84c-.25,.68-.57,1.26-.95,1.73-.39,.48-.85,.84-1.38,1.07-.53,.24-1.15,.36-1.86,.36Zm13.66-4.75c-.47,0-.87-.16-1.2-.49-.33-.34-.5-.74-.5-1.21s.17-.86,.5-1.19c.34-.34,.74-.5,1.2-.5s.87,.17,1.2,.5c.33,.33,.5,.73,.5,1.19,0,.31-.08,.6-.24,.86-.15,.26-.36,.46-.61,.61s-.54,.23-.85,.23Zm0-9.53c-.47,0-.87-.17-1.2-.5-.33-.34-.5-.74-.5-1.2s.17-.86,.5-1.19c.34-.34,.74-.5,1.2-.5s.87,.17,1.2,.5c.33,.33,.5,.73,.5,1.19,0,.31-.08,.6-.24,.86-.15,.26-.36,.46-.61,.61s-.54,.23-.85,.23Z"/>
  <g class="cls-2">
    <g>
      <path class="cls-1" d="M179.39,21.97c.08-.01,.16-.03,.24-.03,.88,0,1.76,0,2.64,0,.06,0,.12,.01,.17,.02,.08,.09,.06,.19,.08,.29,.03,.2,.04,.41,.09,.61,.17,.71,.65,1.12,1.38,1.19,.22,.02,.44,.03,.65,.01,.6-.04,1.04-.34,1.34-.85,.17-.28,.26-.6,.29-.93,.01-.15,0-.3,0-.44,0-4.63,0-9.26,0-13.9,0-.14-.02-.28,.03-.42,.05-.01,.1-.03,.16-.04,.07,0,.14,0,.21,0,1.82,0,3.64,0,5.46,0,.83,0,1.64,.11,2.42,.4,.72,.26,1.36,.64,1.89,1.19,.7,.72,1.09,1.59,1.24,2.57,.1,.69,.08,1.38-.09,2.06-.28,1.14-.95,2-1.95,2.61-.6,.36-1.25,.58-1.94,.71-.49,.09-.98,.13-1.47,.13-.82,0-1.64,0-2.46,0-.11,0-.22-.02-.33,.04-.04,.11-.02,.23-.02,.34,0,1.43,0,2.86,0,4.3,0,.62-.1,1.22-.32,1.8-.53,1.37-1.52,2.23-2.9,2.68-.49,.16-1,.24-1.51,.26-.69,.02-1.39,0-2.06-.2-.29-.08-.57-.17-.84-.29-1.25-.57-2.01-1.53-2.29-2.87-.07-.35-.12-.7-.12-1.06,0-.06,.01-.12,.02-.19h0Zm10.04-7.34h.37c.74,0,1.48,0,2.22,0,.15,0,.3,0,.44-.01,.35-.03,.69-.09,1-.24,.54-.25,.89-.65,1.03-1.22,.14-.55,.13-1.1-.05-1.63-.26-.76-.79-1.24-1.57-1.43-.22-.05-.45-.08-.68-.08-.86,0-1.72,0-2.58,0-.07,0-.13,.02-.19,.03-.07,.12-.05,.23-.05,.33,0,.5,.02,1.01,.03,1.51,0,.8,0,1.6,0,2.4,0,.11,0,.21,.01,.35h0Z"/>
      <path class="cls-1" d="M208.6,14.32c-.26,.04-2.67,.04-2.91,0-.07-.07-.06-.16-.05-.25,.12-2.26,1.57-3.94,3.71-4.48,.77-.19,1.54-.21,2.33-.14,.51,.05,1,.15,1.47,.32,.65,.24,1.22,.6,1.67,1.14,.5,.59,.75,1.29,.86,2.05,.16,1.16-.12,2.23-.69,3.24-.34,.6-.75,1.16-1.2,1.69-.27,.32-.56,.64-.85,.95-.94,1-1.89,1.99-2.84,2.99-.07,.08-.15,.15-.2,.23,.04,.07,.1,.06,.14,.06,.13,0,.26,0,.39,0,1.79,0,3.58,0,5.37,0,.12,0,.26-.03,.38,.05,0,.04,.02,.07,.02,.11,0,.7,0,1.4,0,2.1,0,.04-.01,.08-.03,.13-.06,.01-.11,.03-.17,.03-.08,0-.16,0-.24,0-3.14,0-6.27,0-9.41,0-.13,0-.26,.02-.39-.04-.01-.06-.03-.13-.03-.2,0-.54,0-1.09,0-1.63,0-.17,.08-.27,.19-.38,.8-.85,1.6-1.7,2.4-2.55,.74-.78,1.48-1.57,2.21-2.36,.44-.47,.85-.96,1.22-1.49,.2-.29,.39-.6,.53-.92,.25-.58,.29-1.19,.14-1.8-.18-.75-.72-1.28-1.57-1.34-.26-.02-.52-.02-.77,.04-.51,.11-.9,.39-1.19,.82-.26,.39-.38,.82-.42,1.28,0,.11,.02,.22-.06,.33h0Z"/>
      <path class="cls-1" d="M226.64,18.09c-.14,.02-.26,.03-.38,.05-.6,.09-1.02,.4-1.24,.97-.12,.31-.17,.63-.17,.96,0,.73,0,1.46,0,2.19,0,.57-.07,1.14-.23,1.7-.27,.92-.8,1.67-1.58,2.23-.54,.39-1.15,.65-1.79,.84-.03,0-.06,0-.1,0-.03-.04-.06-.09-.08-.14-.16-.47-.32-.93-.48-1.4,0-.03,0-.06-.01-.1,.06-.03,.11-.07,.17-.1,.5-.23,.84-.61,1.07-1.11,.16-.36,.25-.75,.29-1.14,.03-.29,.04-.59,.04-.89,0-.72,0-1.44,.01-2.16,0-.31,.05-.61,.13-.91,.21-.8,.67-1.42,1.37-1.86,.09-.06,.18-.11,.29-.18-.07-.05-.12-.09-.18-.12-.88-.51-1.38-1.28-1.55-2.27-.06-.35-.07-.71-.07-1.06,0-.59,0-1.18,0-1.78,0-.38-.02-.75-.09-1.12-.05-.26-.12-.52-.23-.76-.22-.52-.57-.92-1.09-1.16-.05-.02-.1-.05-.15-.08,.01-.2,.37-1.28,.55-1.64,.04,0,.09-.01,.13,0,.87,.25,1.66,.64,2.31,1.27,.56,.55,.91,1.21,1.1,1.96,.13,.51,.17,1.03,.18,1.56,0,.71,0,1.42,0,2.13,0,.29,.04,.57,.12,.85,.21,.67,.68,1.05,1.38,1.12,.09,0,.18,.02,.27,.03,.01,.06,.04,.11,.04,.15,0,.61,0,1.22,0,1.84,0,.04-.01,.08-.02,.14h0Z"/>
      <path class="cls-1" d="M174.75,17.03c.08,.06,.15,.1,.21,.14,.92,.58,1.4,1.43,1.51,2.49,.04,.3,.04,.61,.04,.92,0,.71,0,1.42,.01,2.13,0,.42,.08,.82,.22,1.22,.21,.63,.59,1.11,1.21,1.38,.03,.01,.05,.03,.08,.04,0,0,.01,.01,.04,.03,0,.05,0,.11-.02,.16-.15,.45-.31,.9-.46,1.34-.02,.05-.04,.09-.07,.14-.04,0-.08,0-.12,0-.64-.19-1.24-.45-1.79-.84-.87-.63-1.41-1.47-1.66-2.52-.12-.5-.15-1.02-.15-1.53,0-.64,0-1.28,0-1.93,0-.27-.01-.53-.08-.79-.03-.11-.06-.23-.11-.34-.22-.54-.63-.85-1.2-.94-.13-.02-.25-.04-.39-.05-.01-.07-.03-.12-.03-.18,0-.58,0-1.17,0-1.75,0-.06,.01-.11,.02-.19,.08-.01,.16-.03,.24-.04,.12-.02,.24-.03,.35-.06,.49-.12,.82-.42,1.01-.88,.14-.34,.19-.7,.19-1.07,0-.68,0-1.36,0-2.04,0-.58,.05-1.16,.21-1.73,.27-.96,.81-1.73,1.63-2.3,.52-.37,1.1-.62,1.71-.8,.05-.01,.1-.02,.16-.03,.15,.26,.22,.55,.32,.82,.09,.27,.21,.53,.26,.82-.07,.04-.13,.08-.19,.11-.56,.26-.92,.7-1.13,1.27-.13,.36-.2,.74-.23,1.13-.02,.22-.02,.43-.02,.65,0,.63,0,1.26,0,1.9,0,.43-.04,.85-.15,1.26-.21,.8-.67,1.42-1.36,1.87-.08,.05-.16,.11-.26,.17Z"/>
      <path class="cls-1" d="M203.67,23.07c0,.77-.51,1.38-1.26,1.53-.36,.07-.71,.06-1.05-.05-.69-.22-1.18-.86-1.06-1.73,.1-.72,.62-1.22,1.35-1.34,.28-.04,.55-.03,.82,.03,.74,.18,1.21,.79,1.21,1.55Z"/>
      <path class="cls-1" d="M201.97,13.09c.21,0,.41,.03,.61,.09,.69,.23,1.18,.86,1.07,1.73-.09,.73-.65,1.25-1.38,1.34-.3,.04-.59,.03-.88-.06-.71-.2-1.23-.85-1.11-1.76,.11-.8,.76-1.29,1.5-1.35,.06,0,.12,0,.18,0h0Z"/>
    </g>
  </g>
</svg>