<svg width="99" height="122" viewBox="0 0 99 122" fill="none" xmlns="http://www.w3.org/2000/svg">
<g clip-path="url(#clip0_1072_945)">
<path d="M43.9207 122.056C43.2799 122.107 42.6391 122.203 41.9983 122.203C34.5208 122.218 27.0433 122.223 19.5682 122.223C17.3014 122.223 16.4558 121.264 17.523 119.267C18.4288 117.568 19.8573 115.911 21.4641 114.875C24.9403 112.635 26.5567 109.465 26.5109 105.593C26.4507 100.619 25.8677 95.6538 25.6148 90.6793C25.5064 88.5377 25.5112 86.3696 25.728 84.2376C26.0749 80.8096 25.9809 77.3624 24.432 74.3367C21.0497 67.7288 21.758 60.9861 22.6806 54.0169C23.372 48.787 23.2949 43.4414 23.3383 38.1465C23.36 35.6483 21.9266 33.9572 19.4839 33.0201C15.5259 31.5001 11.6113 29.8547 7.73285 28.1395C1.35385 25.3162 -1.94887 16.268 1.21654 10.1179C1.59234 9.38555 2.91247 8.78812 3.82307 8.74475C6.64399 8.60744 9.47937 8.69417 12.3051 8.83148C14.519 8.93988 16.304 8.25814 18.0481 6.87056C20.1945 5.16018 22.4566 3.49557 24.9017 2.27662C31.023 -0.775567 37.2309 -0.869518 43.2462 2.68133C45.6142 4.08095 48.0569 5.4613 50.119 7.24877C53.7999 10.4335 54.8358 14.9744 55.5465 19.5515C55.8138 21.2763 55.9512 23.0325 55.9921 24.7766C56.1077 29.8041 52.634 33.9355 47.6209 34.9955C42.8704 36 36.2842 33.6127 37.0189 26.1521C37.19 24.4128 37.4453 22.6832 37.6742 20.9487C37.8693 19.4768 38.3198 17.6917 36.4456 17.181C34.3979 16.6246 33.7764 18.4554 33.4849 19.9658C32.9525 22.7193 32.1431 25.5643 32.3696 28.2961C33.2705 39.1895 44.9927 41.8033 52.039 38.0959C53.453 37.3515 54.7948 36.3903 55.9753 35.3135C57.1051 34.2824 57.9048 34.2728 59.0636 35.2533C65.5413 40.7385 71.2603 46.9007 75.4808 54.2867C83.4401 68.213 88.3159 83.3174 91.8981 98.8602C93.1098 104.114 92.3052 109.183 89.0073 113.663C88.8989 113.813 88.8844 114.032 88.7471 114.48C90.3804 115.171 92.0474 115.805 93.647 116.578C95.0346 117.25 96.439 117.954 97.6628 118.874C99.0913 119.946 98.9901 121.148 97.3279 121.75C95.0707 122.567 92.7075 123.268 90.3322 123.552C79.2846 124.88 68.1936 125.345 57.0713 124.74C56.339 124.699 55.6043 124.54 54.8888 124.364C49.8926 123.14 47.1391 120.004 47.3149 115.769C47.5028 111.226 50.7044 107.761 55.6428 107.075C58.3023 106.704 61.0245 106.588 63.525 108.017C65.6763 109.245 66.6639 111.31 66.0641 113.637C65.657 115.22 64.7343 116.321 62.9228 116.142C61.6846 116.019 61.1088 115.432 61.646 114.08C62.5084 111.912 61.9929 111.016 59.714 110.621C57.4158 110.223 55.267 110.739 53.3591 112.025C51.032 113.596 50.6273 116.622 52.7689 118.433C54.1926 119.635 56.0861 120.623 57.9049 120.951C66.2086 122.451 71.9998 119.233 76.0999 111.852C81.5876 101.973 78.6005 90.1204 72.1781 83.8474C70.9953 82.6911 70.1497 82.3056 68.6152 83.4403C64.4453 86.5213 59.6538 88.2992 54.6744 89.6554C53.7518 89.906 52.9737 90.7347 52.1715 91.3514C51.4295 91.9223 50.767 92.5944 50.0323 93.1726C47.3366 95.2949 44.4699 97.2269 41.9525 99.5419C34.9978 105.933 35.2339 113.661 42.3982 119.903C42.986 120.416 43.5545 120.951 44.1303 121.476C44.0628 121.668 43.9954 121.861 43.9279 122.056H43.9207ZM68.5044 77.095C69.5716 71.0267 60.4511 61.5305 56.5968 59.3576C54.3757 58.1049 53.6458 58.488 53.0556 60.9596C52.4557 63.4746 51.3596 65.515 49.2542 67.1507C48.0256 68.1046 47.2668 69.6536 46.2526 70.8991C45.3347 72.0241 44.4988 73.284 43.3762 74.1608C40.8805 76.1073 40.3457 77.4178 42.085 80.0869C42.9884 81.4721 44.4916 82.5706 45.9274 83.4788C47.7221 84.6158 49.7119 85.4542 51.6511 86.3503C52.0944 86.5551 52.7014 86.596 53.1856 86.4924C58.0446 85.4469 62.5277 83.5222 66.6639 80.747C68.0539 79.8147 68.6562 78.6199 68.5068 77.095H68.5044ZM23.2973 8.97843C22.8806 9.29641 21.9435 9.88421 21.2111 10.6647C21.0281 10.8598 21.4689 12.1173 21.6857 12.1366C23.5816 12.298 24.8897 13.3194 26.1303 14.6395C26.9807 15.5453 27.7154 15.1551 28.0214 14.0349C28.6043 11.8813 26.2435 8.93025 23.2973 8.98083V8.97843Z" fill="#3E73C7"/>
<path d="M49.3481 72.3248C51.7114 71.2167 53.2603 71.9563 53.4169 74.2062C52.0968 73.5968 50.8273 73.009 49.3481 72.3248Z" fill="#3E73C7"/>
</g>
<defs>
<clipPath id="clip0_1072_945">
<rect width="98.6577" height="125" fill="white"/>
</clipPath>
</defs>
</svg>
